<svg version="1.2" xmlns="http://www.w3.org/2000/svg" viewBox="0 0 16 16" width="16" height="16">
	<title>New Project</title>
	<style>
		.s0 { fill: #ffffff } 
	</style>
	<path id="25" class="s0" aria-label="25"  d="m7.9 10.4h-4.3c0.1-0.1 0.2-0.3 0.3-0.4 0.2-0.2 0.3-0.3 0.5-0.5 0.2-0.1 0.4-0.2 0.5-0.3 0.1-0.1 0.3-0.3 0.5-0.4 0.3-0.2 0.4-0.3 0.5-0.3 0.7-0.5 1.2-0.9 1.5-1.3 0.3-0.4 0.4-0.9 0.4-1.6 0-0.8-0.3-1.5-0.8-2-0.6-0.5-1.4-0.8-2.3-0.8-1 0-1.8 0.3-2.4 1-0.6 0.6-0.9 1.4-0.9 2.4v0.2h1.8c0-1.3 0.5-2 1.5-2 0.3 0 0.7 0.2 0.9 0.4 0.2 0.2 0.4 0.5 0.4 0.9 0 0.2-0.1 0.4-0.2 0.6 0 0.1-0.1 0.3-0.2 0.4 0 0.1-0.2 0.2-0.3 0.4-0.2 0.1-0.3 0.3-0.4 0.3-0.1 0.1-0.3 0.2-0.5 0.3-0.2 0.2-0.4 0.3-0.4 0.3-0.4 0.3-0.7 0.5-0.9 0.6-0.3 0.2-0.5 0.4-0.8 0.7-0.3 0.2-0.5 0.5-0.6 0.7-0.1 0.2-0.2 0.5-0.3 0.9-0.1 0.3-0.2 0.7-0.2 1.1h6.7zm6.7-7.4h-5.1l-0.8 5h1.6c0.3-0.5 0.8-0.8 1.4-0.8 0.5 0 0.8 0.2 1.1 0.5 0.3 0.3 0.5 0.7 0.5 1.2 0 0.5-0.2 0.9-0.5 1.3-0.3 0.3-0.7 0.4-1.1 0.4-0.4 0-0.8-0.1-1-0.3-0.3-0.3-0.5-0.6-0.5-1h-1.8c0 0.9 0.4 1.6 1 2.1 0.6 0.5 1.3 0.7 2.3 0.7 1 0 1.8-0.3 2.5-0.9 0.6-0.6 0.9-1.4 0.9-2.3 0-0.9-0.2-1.6-0.8-2.2-0.5-0.5-1.2-0.8-2.1-0.8-0.7 0-1.2 0.2-1.7 0.6l0.4-2h3.7z"/>
</svg>