<svg version="1.2" xmlns="http://www.w3.org/2000/svg" viewBox="0 0 16 16" width="16" height="16">
	<title>New Project</title>
	<style>
		.s0 { fill: #ffffff } 
	</style>
	<path id="26 " class="s0" aria-label="31
"  d="m1.4 5.9h1.8c0-0.5 0.1-0.9 0.3-1.2 0.3-0.2 0.6-0.4 1-0.4 0.4 0 0.7 0.1 1 0.3 0.2 0.2 0.3 0.5 0.3 0.9 0 0.7-0.5 1.1-1.6 1.1-0.1 0-0.2 0-0.3 0v1.3c0.1 0 0.3 0 0.5 0 0.5 0 0.8 0.1 1.2 0.3 0.3 0.2 0.4 0.6 0.4 1 0 0.4-0.1 0.8-0.4 1-0.3 0.3-0.6 0.4-1.1 0.4-0.5 0-0.9-0.1-1.1-0.4-0.3-0.3-0.4-0.8-0.4-1.3h-1.8v0.1c0 1 0.3 1.7 0.9 2.3 0.6 0.6 1.4 0.9 2.4 0.9 1 0 1.9-0.3 2.5-0.9 0.6-0.5 0.9-1.2 0.9-2.1 0-0.5-0.1-1-0.4-1.3-0.3-0.4-0.7-0.7-1.2-0.8 0.4-0.1 0.7-0.3 0.9-0.6 0.3-0.3 0.4-0.7 0.4-1.2 0-0.7-0.3-1.3-0.8-1.8-0.6-0.4-1.3-0.7-2.2-0.7-1 0-1.7 0.3-2.3 0.8-0.6 0.6-0.8 1.3-0.9 2.3zm12-3h-1.5c-0.3 1.2-1.1 1.8-2.5 1.8h-0.2v1.4h2.2v5.9h2z"/>
</svg>