<svg id="visual" viewBox="0 0 2000 900" width="2000" height="900" xmlns="http://www.w3.org/2000/svg" xmlns:xlink="http://www.w3.org/1999/xlink" version="1.1"><rect x="0" y="0" width="2000" height="900" fill="#fff"></rect><defs><linearGradient id="grad1_0" x1="55%" y1="0%" x2="100%" y2="100%"><stop offset="5.555555555555554%" stop-color="#75b2dd" stop-opacity="1"></stop><stop offset="94.44444444444446%" stop-color="#75b2dd" stop-opacity="1"></stop></linearGradient></defs><defs><linearGradient id="grad1_1" x1="55%" y1="0%" x2="100%" y2="100%"><stop offset="5.555555555555554%" stop-color="#75b2dd" stop-opacity="1"></stop><stop offset="94.44444444444446%" stop-color="#bdd8ee" stop-opacity="1"></stop></linearGradient></defs><defs><linearGradient id="grad1_2" x1="55%" y1="0%" x2="100%" y2="100%"><stop offset="5.555555555555554%" stop-color="#ffffff" stop-opacity="1"></stop><stop offset="94.44444444444446%" stop-color="#bdd8ee" stop-opacity="1"></stop></linearGradient></defs><defs><linearGradient id="grad2_0" x1="0%" y1="0%" x2="45%" y2="100%"><stop offset="5.555555555555554%" stop-color="#75b2dd" stop-opacity="1"></stop><stop offset="94.44444444444446%" stop-color="#75b2dd" stop-opacity="1"></stop></linearGradient></defs><defs><linearGradient id="grad2_1" x1="0%" y1="0%" x2="45%" y2="100%"><stop offset="5.555555555555554%" stop-color="#bdd8ee" stop-opacity="1"></stop><stop offset="94.44444444444446%" stop-color="#75b2dd" stop-opacity="1"></stop></linearGradient></defs><defs><linearGradient id="grad2_2" x1="0%" y1="0%" x2="45%" y2="100%"><stop offset="5.555555555555554%" stop-color="#bdd8ee" stop-opacity="1"></stop><stop offset="94.44444444444446%" stop-color="#ffffff" stop-opacity="1"></stop></linearGradient></defs><g transform="translate(2000, 0)"><path d="M0 810C-100.3 796.5 -200.7 783.1 -310 748.3C-419.3 713.6 -537.5 657.6 -559.3 559.3C-581.1 461.1 -506.5 320.7 -532.2 220.4C-557.9 120.2 -683.9 60.1 -810 0L0 0Z" fill="#dfebf7"></path><path d="M0 540C-66.9 531 -133.8 522.1 -206.6 498.9C-279.5 475.7 -358.4 438.4 -372.9 372.9C-387.4 307.4 -337.6 213.8 -354.8 147C-371.9 80.1 -456 40.1 -540 0L0 0Z" fill="#9bc5e6"></path><path d="M0 270C-33.4 265.5 -66.9 261 -103.3 249.4C-139.8 237.9 -179.2 219.2 -186.4 186.4C-193.7 153.7 -168.8 106.9 -177.4 73.5C-186 40.1 -228 20 -270 0L0 0Z" fill="#75b2dd"></path></g><g transform="translate(0, 900)"><path d="M0 -810C106.5 -799.4 212.9 -788.7 310 -748.3C407 -707.9 494.7 -637.8 555.8 -555.8C616.8 -473.8 651.3 -380.1 689.2 -285.5C727.1 -190.9 768.6 -95.4 810 0L0 0Z" fill="#dfebf7"></path><path d="M0 -540C71 -532.9 141.9 -525.8 206.6 -498.9C271.4 -472 329.8 -425.2 370.5 -370.5C411.2 -315.9 434.2 -253.4 459.5 -190.3C484.8 -127.3 512.4 -63.6 540 0L0 0Z" fill="#9bc5e6"></path><path d="M0 -270C35.5 -266.5 71 -262.9 103.3 -249.4C135.7 -236 164.9 -212.6 185.3 -185.3C205.6 -157.9 217.1 -126.7 229.7 -95.2C242.4 -63.6 256.2 -31.8 270 0L0 0Z" fill="#75b2dd"></path></g></svg>