<svg version="1.2" xmlns="http://www.w3.org/2000/svg" viewBox="0 0 24 24" width="24" height="24">
	<title>dark-mode-moon-svg</title>
	<style>
		.s0 { fill: #667a91 } 
	</style>
	<path id="Layer" class="s0" d="m19.9 2.3c-0.2-0.4-0.7-0.4-0.9 0l-0.4 1.1q-0.1 0.2-0.3 0.3l-1.1 0.4c-0.4 0.2-0.4 0.7 0 0.9l1.1 0.4q0.2 0.1 0.3 0.3l0.4 1.1c0.2 0.4 0.7 0.4 0.9 0l0.4-1.1q0.1-0.2 0.3-0.3l1.1-0.4c0.4-0.2 0.4-0.7 0-0.9l-1.1-0.4q-0.2-0.1-0.3-0.3z"/>
	<path id="Layer" class="s0" d="m16 8.1c-0.1-0.4-0.7-0.4-0.9 0l-0.1 0.4q-0.1 0.2-0.3 0.3l-0.4 0.2c-0.4 0.1-0.4 0.7 0 0.9l0.4 0.1q0.2 0.1 0.3 0.3l0.1 0.4c0.2 0.4 0.8 0.4 0.9 0l0.2-0.4q0.1-0.2 0.3-0.3l0.4-0.1c0.4-0.2 0.4-0.8 0-0.9l-0.4-0.2q-0.2-0.1-0.3-0.3z"/>
	<path id="Layer" class="s0" d="m12 22c5.5 0 10-4.5 10-10 0-0.5-0.7-0.5-0.9-0.1-1.2 1.8-3.2 3.1-5.6 3.1-3.6 0-6.5-2.9-6.5-6.5 0-2.4 1.3-4.4 3.1-5.6 0.4-0.2 0.4-0.9-0.1-0.9-5.5 0-10 4.5-10 10 0 5.5 4.5 10 10 10z"/>
</svg>