<svg id="svg" xmlns="http://www.w3.org/2000/svg" xmlns:xlink="http://www.w3.org/1999/xlink" width="400" height="400" viewBox="0, 0, 400,400"><g id="svgg"><path id="path0" d="M139.219 0.938 C 138.554 1.602,138.281 6.282,138.281 17.021 L 138.281 32.167 140.625 33.052 L 142.969 33.936 142.969 64.991 L 142.969 96.046 138.477 98.906 C 108.893 117.746,76.906 162.916,88.833 169.008 C 94.642 171.975,211.135 218.750,212.715 218.750 C 214.635 218.750,332.229 162.369,334.570 160.326 C 337.682 157.610,335.399 151.583,325.891 137.406 C 310.885 115.035,289.046 97.356,263.713 87.075 L 257.504 84.555 257.854 80.363 C 259.510 60.495,257.390 49.171,249.952 38.164 C 247.021 33.826,246.996 33.727,248.485 32.379 C 250.736 30.342,250.811 3.320,248.571 1.293 C 246.721 -0.382,140.882 -0.726,139.219 0.938 M239.844 16.797 L 239.844 24.219 193.750 24.219 L 147.656 24.219 147.656 16.797 L 147.656 9.375 193.750 9.375 L 239.844 9.375 239.844 16.797 M236.058 37.305 C 246.537 48.545,250.479 61.787,248.090 77.722 C 247.457 81.943,248.958 81.739,236.328 79.323 C 232.891 78.666,225.272 77.898,219.399 77.618 L 208.719 77.109 205.934 70.390 C 197.685 50.493,184.329 36.108,178.772 41.137 C 176.070 43.582,176.992 46.082,183.130 52.948 C 188.769 59.256,192.957 66.219,197.154 76.262 C 198.252 78.890,207.796 95.235,218.362 112.584 C 239.316 146.988,238.934 146.086,234.258 150.134 C 227.337 156.125,225.668 154.880,210.834 132.657 C 197.303 112.387,198.031 113.076,188.672 111.693 C 176.406 109.880,164.574 104.264,156.580 96.458 L 152.344 92.323 152.344 62.958 L 152.344 33.594 192.471 33.594 L 232.599 33.594 236.058 37.305 M237.109 89.756 C 261.430 94.748,283.854 106.731,301.601 124.219 C 312.910 135.362,325.730 153.468,323.324 154.899 C 322.742 155.245,297.567 167.435,267.380 181.988 L 212.495 208.448 154.724 184.982 L 96.952 161.515 98.977 157.520 C 109.201 137.343,124.603 120.153,143.605 107.712 L 149.320 103.971 153.514 107.386 C 161.525 113.912,172.689 118.976,183.594 121.032 C 186.387 121.558,189.405 122.131,190.301 122.305 C 191.406 122.520,195.305 127.711,202.410 138.427 C 208.175 147.120,213.912 155.410,215.160 156.850 C 226.726 170.186,251.382 158.143,246.864 141.365 C 246.187 138.853,229.996 111.541,216.597 90.310 L 214.673 87.260 221.985 87.706 C 226.006 87.951,232.813 88.874,237.109 89.756 M278.125 198.470 C 245.254 214.359,217.920 227.949,217.383 228.672 C 215.459 231.261,216.017 365.031,217.959 366.788 C 221.288 369.801,246.458 367.034,263.052 361.832 L 270.202 359.590 272.578 362.898 C 274.930 366.173,274.938 366.220,273.414 367.599 C 271.141 369.657,271.045 396.663,273.304 398.707 C 275.154 400.382,380.993 400.726,382.656 399.063 C 383.321 398.398,383.594 393.718,383.594 382.979 L 383.594 367.833 381.274 366.957 L 378.954 366.082 378.735 320.736 L 378.516 275.391 376.682 272.266 C 375.674 270.547,371.053 264.043,366.414 257.813 L 357.979 246.484 357.580 229.297 C 357.065 207.078,352.735 187.241,345.474 173.828 C 341.900 167.226,345.464 165.922,278.125 198.470 M80.051 177.359 C 76.891 178.534,72.475 189.925,69.830 203.725 L 68.461 210.863 45.956 241.174 C 31.936 260.057,23.007 272.789,22.273 274.944 C 21.277 277.867,21.094 285.227,21.094 322.405 C 21.094 364.256,21.025 366.406,19.688 366.406 C 16.671 366.406,16.406 367.763,16.406 383.203 C 16.406 393.767,16.680 398.399,17.344 399.063 C 19.124 400.843,125.207 400.367,126.832 398.571 C 128.967 396.212,128.747 369.555,126.576 367.590 C 125.041 366.201,125.051 366.155,127.752 362.475 C 129.251 360.433,131.381 356.791,132.484 354.381 C 133.587 351.972,134.625 350.000,134.791 350.000 C 134.957 350.000,138.194 351.555,141.985 353.456 C 164.053 364.521,201.897 372.210,207.366 366.741 C 209.360 364.747,209.224 229.690,207.227 227.973 C 206.167 227.062,87.877 178.728,82.813 177.136 C 82.168 176.934,80.925 177.034,80.051 177.359 M341.375 190.933 C 350.018 216.917,350.281 243.303,342.159 269.531 C 339.143 279.270,339.408 278.966,334.467 278.381 L 330.332 277.891 320.138 262.578 C 303.913 238.205,302.706 237.114,292.546 237.627 C 280.900 238.215,272.411 248.244,274.967 258.395 C 275.450 260.314,283.390 274.077,293.675 290.826 L 311.543 319.922 308.311 323.328 C 291.002 341.564,254.461 357.813,230.757 357.813 L 226.563 357.813 226.563 296.221 L 226.563 234.629 281.836 208.000 C 330.244 184.679,337.227 181.523,338.059 182.595 C 338.581 183.268,340.073 187.020,341.375 190.933 M198.432 296.289 L 198.438 357.813 194.727 357.809 C 163.898 357.783,120.521 333.972,102.117 306.974 L 99.157 302.630 111.643 282.227 C 128.286 255.033,129.035 251.257,119.496 242.639 C 107.837 232.106,97.830 235.492,85.507 254.140 C 80.192 262.183,80.276 262.233,78.475 249.964 C 75.938 232.679,77.558 211.325,82.716 194.057 L 84.375 188.504 141.401 211.635 L 198.426 234.766 198.432 296.289 M69.488 256.987 C 70.371 261.600,71.580 266.993,72.176 268.972 C 73.893 274.676,71.672 277.335,64.131 278.606 C 53.561 280.387,47.545 284.617,48.751 289.422 C 49.695 293.186,52.190 293.476,60.351 290.770 C 64.362 289.440,69.211 288.112,71.127 287.819 C 75.861 287.095,75.116 287.949,89.240 267.069 C 103.501 245.986,104.172 245.385,110.092 248.405 C 118.215 252.549,118.648 251.310,96.273 287.891 C 86.023 304.648,76.814 320.469,75.809 323.047 C 72.160 332.409,67.772 339.854,62.353 345.881 C 53.958 355.216,53.595 360.156,61.302 360.156 C 66.279 360.156,81.065 339.602,85.160 326.990 C 85.712 325.292,87.753 321.284,89.697 318.082 L 93.230 312.262 94.727 314.139 C 103.605 325.268,110.633 332.274,120.859 340.190 L 125.703 343.940 124.301 347.629 C 122.604 352.096,118.840 357.700,114.183 362.695 L 110.724 366.406 70.565 366.406 L 30.407 366.406 30.633 322.816 C 30.848 281.410,30.934 279.111,32.355 276.918 C 33.178 275.648,41.264 264.611,50.324 252.391 L 66.797 230.173 67.340 239.387 C 67.639 244.454,68.606 252.374,69.488 256.987 M296.307 247.887 C 297.833 248.550,302.219 254.350,311.151 267.519 C 325.203 288.238,323.953 286.998,332.016 288.228 C 335.230 288.718,339.729 290.004,342.014 291.085 C 346.614 293.260,348.608 293.065,350.447 290.258 C 351.812 288.175,351.266 284.724,349.407 283.683 C 348.356 283.095,348.466 282.292,350.284 277.248 C 351.426 274.078,353.014 268.872,353.812 265.680 L 355.263 259.875 360.708 267.242 C 363.702 271.294,366.825 275.648,367.646 276.918 C 369.065 279.110,369.152 281.429,369.367 322.816 L 369.593 366.406 329.494 366.406 L 289.394 366.406 285.880 362.695 C 278.747 355.163,278.764 356.115,285.704 352.325 C 294.321 347.620,302.501 342.052,309.845 335.893 L 316.175 330.585 318.439 335.367 C 327.062 353.580,340.716 365.401,343.791 357.315 C 344.811 354.631,343.787 352.736,337.518 345.703 C 332.178 339.713,329.091 334.344,322.695 319.922 C 321.742 317.773,313.041 303.070,303.360 287.247 C 293.679 271.424,285.383 257.484,284.925 256.271 C 283.050 251.302,290.885 245.531,296.307 247.887 M117.969 383.203 L 117.969 390.625 71.875 390.625 L 25.781 390.625 25.781 383.203 L 25.781 375.781 71.875 375.781 L 117.969 375.781 117.969 383.203 M374.219 383.203 L 374.219 390.625 328.125 390.625 L 282.031 390.625 282.031 383.203 L 282.031 375.781 328.125 375.781 L 374.219 375.781 374.219 383.203 " stroke="none" fill="#000000" fill-rule="evenodd"></path></g></svg>