<svg version="1.2" xmlns="http://www.w3.org/2000/svg" viewBox="0 0 400 400" width="400" height="400">
	<title>feedback2-svg</title>
	<style>
		.s0 { fill: #002147 } 
		.s1 { fill: #080404 } 
	</style>
	<g id="svgg">
		<path id="path0" fill-rule="evenodd" class="s0" d="m208.4 27.9c0.3 0.6 0.9 1.4 1.3 1.7 0.4 0.4 0.7 0.9 0.7 1 0 0.2 0.5 1 1.2 1.8 0.7 0.8 1.2 1.6 1.2 1.8 0 0.2 0.4 0.7 0.8 1 0.4 0.3 0.8 0.9 0.8 1.2 0 0.3 0.4 0.9 0.8 1.2 0.4 0.3 0.8 0.9 0.8 1.2 0 0.3 0.4 0.9 0.8 1.2 0.4 0.3 0.8 0.9 0.8 1.2 0 0.3 0.4 0.9 0.8 1.2 0.4 0.3 0.8 0.8 0.8 1.1 0 0.3 0.1 0.5 0.3 0.5 0.2 0 0.8 0.7 1.3 1.6 0.5 0.9 1.1 1.6 1.2 1.6 0.2 0 0.5 0.5 0.8 1.1 0.5 1.2 2 2.1 3.7 2.1 0.6 0 1.1 0.2 1.1 0.4 0 0.2 0.5 0.4 1.2 0.4 0.7 0 1.2 0.2 1.2 0.4 0 0.2 0.6 0.4 1.4 0.4 0.7 0 1.5 0.2 1.6 0.4 0.1 0.2 0.8 0.4 1.4 0.4 0.7 0 1.2 0.2 1.2 0.4 0 0.2 0.5 0.4 1.2 0.4 0.6 0 1.3 0.2 1.4 0.4 0.1 0.2 0.8 0.4 1.4 0.4 0.7 0 1.2 0.2 1.2 0.4 0 0.2 0.5 0.4 1.2 0.4 0.7 0 1.2 0.2 1.2 0.4 0 0.2 0.7 0.4 1.6 0.4 0.9 0 1.6 0.2 1.6 0.4 0 0.2 0.5 0.4 1.2 0.4 0.7 0 1.2 0.2 1.2 0.4 0 0.2 0.3 0.4 0.6 0.4 1 0 4.2 3 4.2 3.9 0 0.3 0.2 0.5 0.4 0.5 0.2 0 0.4 0.3 0.4 0.8 0 0.4 0.2 0.9 0.4 1 0.2 0.1 0.4 1.7 0.4 3.4 0 1.7-0.2 3.3-0.4 3.4-0.2 0.1-0.4 0.5-0.4 0.9 0 0.7-2.1 3.8-3.7 5.4-0.6 0.7-1.1 1.4-1.1 1.6 0 0.2-0.5 0.9-1.2 1.5-0.7 0.6-1.2 1.3-1.2 1.6 0 0.3-0.5 1-1.2 1.6-0.7 0.6-1.2 1.3-1.2 1.5 0 0.2-0.7 1.1-1.6 2.1-0.9 1-1.6 1.9-1.6 2.1 0 0.2-0.5 1-1.1 1.7-2.7 3.2-2.5 1.5-2.5 18 0 9.7-0.1 15-0.4 15-0.2 0-0.4 0.3-0.4 0.6 0 0.8-3.4 4.2-4.2 4.2-0.3 0-0.6 0.2-0.6 0.4 0 0.2-0.4 0.4-0.8 0.4-0.4 0-0.8 0.2-0.8 0.4 0 0.2-1.4 0.4-3.4 0.4-2 0-3.4-0.2-3.4-0.4 0-0.2-0.5-0.4-1.2-0.4-0.7 0-1.2-0.2-1.2-0.4 0-0.2-0.5-0.4-1.2-0.4-0.7 0-1.2-0.2-1.2-0.4 0-0.2-0.5-0.4-1.2-0.4-0.7 0-1.2-0.2-1.2-0.4 0-0.2-0.5-0.4-1-0.4-0.6 0-1-0.2-1-0.4 0-0.2-0.5-0.4-1-0.4-0.6 0-1-0.2-1-0.3 0-0.2-0.8-0.5-1.9-0.6-1-0.2-2-0.5-2.3-0.6-0.2-0.2-1.8-0.8-3.5-1.3-1.7-0.6-3.1-1.1-3.1-1.3 0-0.2-0.9-0.3-2-0.3-1.1 0-2 0.1-2 0.3 0 0.2-1.4 0.7-3.1 1.3-1.7 0.5-3.3 1.1-3.5 1.3-0.3 0.1-1.3 0.4-2.3 0.6-1.1 0.1-1.9 0.4-1.9 0.6 0 0.1-0.3 0.3-0.8 0.3-0.4 0-0.9 0.2-1 0.4-0.1 0.2-0.7 0.4-1.2 0.4-0.6 0-1 0.2-1 0.4 0 0.2-0.5 0.4-1.2 0.4-0.7 0-1.2 0.2-1.2 0.4 0 0.2-0.5 0.4-1.2 0.4-0.7 0-1.2 0.2-1.2 0.4 0 0.2-0.5 0.4-1.2 0.4-0.7 0-1.2 0.2-1.2 0.4 0 0.2-1.4 0.4-3.4 0.4-2 0-3.4-0.2-3.4-0.4 0-0.2-0.4-0.4-0.8-0.4-0.4 0-0.8-0.2-0.8-0.4 0-0.2-0.3-0.4-0.6-0.4-0.8 0-4.2-3.4-4.2-4.2 0-0.3-0.2-0.6-0.4-0.6-0.3 0-0.4-5.3-0.4-15 0-9.6-0.1-15.2-0.4-15.5-1.5-1.7-3.2-4.2-3.2-4.4 0-0.2-0.5-0.9-1.2-1.5-0.7-0.6-1.2-1.3-1.2-1.6 0-0.2-0.2-0.4-0.4-0.4-0.2 0-0.4-0.2-0.4-0.4 0-0.2-0.5-1-1.2-1.7-0.7-0.7-1.2-1.4-1.2-1.6 0-0.2-0.5-0.9-1.2-1.5-0.7-0.6-1.2-1.3-1.2-1.6 0-0.3-0.5-1-1.1-1.5-1.5-1.4-3.7-4.7-3.7-5.4 0-0.4-0.2-0.8-0.4-0.9-0.2-0.1-0.4-1.7-0.4-3.4 0-1.7 0.2-3.3 0.4-3.4 0.2-0.1 0.4-0.6 0.4-1 0-0.5 0.2-0.8 0.4-0.8 0.2 0 0.4-0.2 0.4-0.5 0-0.9 3.2-3.9 4.2-3.9 0.3 0 0.6-0.2 0.6-0.4 0-0.2 0.5-0.4 1.2-0.4 0.6 0 1.3-0.2 1.4-0.4 0.1-0.2 0.9-0.4 1.6-0.4 0.8 0 1.4-0.2 1.4-0.4 0-0.2 0.5-0.4 1.2-0.4 0.7 0 1.2-0.2 1.2-0.4 0-0.2 0.6-0.4 1.4-0.4 0.8 0 1.4-0.2 1.4-0.4 0-0.2 0.5-0.4 1.2-0.4 0.7 0 1.2-0.2 1.2-0.4 0-0.2 0.5-0.4 1.2-0.4 0.6 0 1.3-0.2 1.4-0.4 0.1-0.2 0.9-0.4 1.6-0.4 0.8 0 1.4-0.2 1.4-0.4 0-0.2 0.5-0.4 1.2-0.4 0.7 0 1.2-0.2 1.2-0.4 0-0.2 0.5-0.4 1.1-0.4 1.6 0 3.2-0.8 3.8-2 0.3-0.5 0.8-1.3 1.1-1.6 0.3-0.3 0.9-1.1 1.2-1.7 0.3-0.6 0.7-1.1 0.9-1.1 0.2 0 0.3-0.2 0.3-0.5 0-0.3 0.4-0.8 0.8-1.1 0.4-0.3 0.8-0.9 0.8-1.2 0-0.3 0.4-0.9 0.8-1.2 0.4-0.3 0.8-0.9 0.8-1.2 0-0.3 0.4-0.9 0.8-1.2 0.4-0.3 0.8-0.9 0.8-1.2 0-0.3 0.4-0.9 0.8-1.2 0.4-0.3 0.8-0.8 0.8-1.1 0-0.3 0.2-0.5 0.4-0.5 0.2 0 0.4-0.3 0.4-0.6 0-0.3 0.1-0.6 0.3-0.6 0.2 0 0.6-0.5 0.9-1.1 0.3-0.6 0.9-1.4 1.2-1.7 0.3-0.3 0.8-1.1 1.1-1.7 0.3-0.5 1.4-1.5 2.4-2 4.2-2.4 12.9-1.1 14.5 2zm-124.3 31.2c1.3 0.6 3.9 3.2 3.9 3.8 0 0.2 0.4 0.7 0.8 1.2 0.4 0.5 0.8 1.1 0.8 1.4 0 0.3 0.2 0.5 0.3 0.5 0.2 0 0.7 0.7 1.1 1.6 0.4 0.9 0.9 1.6 1.1 1.6 0.1 0 0.3 0.2 0.3 0.5 0 0.3 0.5 1.1 1.2 1.8 0.7 0.7 1.2 1.5 1.2 1.8 0 0.3 0.4 0.8 0.8 1.1 0.4 0.3 0.8 0.8 0.8 1.1 0 0.3 0.2 0.5 0.4 0.5 0.2 0 0.4 0.3 0.4 0.6 0 0.3 0.2 0.6 0.4 0.6 0.2 0 0.4 0.2 0.4 0.4 0 0.7 1.1 1.6 1.8 1.6 0.3 0 0.6 0.2 0.6 0.4 0 0.2 0.5 0.4 1.2 0.4 0.6 0 1.3 0.2 1.4 0.4 0.1 0.2 0.8 0.4 1.4 0.4 0.6 0 1.3 0.2 1.4 0.4 0.1 0.2 0.7 0.4 1.2 0.4 0.5 0 1.1 0.2 1.2 0.4 0.1 0.2 0.9 0.4 1.6 0.4 0.8 0 1.4 0.2 1.4 0.4 0 0.2 0.5 0.4 1.2 0.4 0.7 0 1.2 0.2 1.2 0.4 0 0.2 0.5 0.4 1.2 0.4 0.6 0 1.3 0.2 1.4 0.4 0.1 0.2 0.9 0.4 1.6 0.4 0.8 0 1.4 0.2 1.4 0.4 0 0.2 0.3 0.4 0.6 0.4 1.4 0 4.4 2.5 5 4.3 0.8 2 0.5 8.7-0.4 9.7-0.4 0.5-0.8 1.1-0.8 1.2 0 0.2-0.4 0.8-0.9 1.3-0.6 0.5-1.1 1.1-1.1 1.4-0.2 0.5-2.5 3.3-4.3 5.2-0.7 0.8-1.3 1.6-1.3 1.8 0 0.2-0.5 0.9-1.2 1.5-0.7 0.6-1.2 1.3-1.2 1.6 0 0.3-0.5 1-1.2 1.6l-1.2 1.1v12.7c0 8.1-0.1 12.6-0.4 12.6-0.2 0-0.4 0.3-0.4 0.6 0 0.6-0.4 1-2.7 3.5-0.3 0.4-0.9 0.7-1.2 0.7-0.3 0-0.5 0.2-0.5 0.4 0 0.2-1.5 0.4-3.8 0.4-2.3 0-3.8-0.2-3.8-0.4 0-0.2-0.5-0.4-1-0.4-0.6 0-1-0.2-1-0.4 0-0.2-0.5-0.4-1.2-0.4-0.7 0-1.2-0.2-1.2-0.4 0-0.2-0.5-0.4-1-0.4-0.6 0-1-0.2-1-0.4 0-0.2-0.5-0.4-1.2-0.4-0.7 0-1.2-0.2-1.2-0.4 0-0.2-0.5-0.4-1.2-0.4-0.7 0-1.2-0.2-1.2-0.4 0-0.2-0.4-0.4-0.8-0.4-0.4 0-0.8-0.2-0.8-0.3 0-0.2-0.9-0.5-2.1-0.7-1.1-0.1-2.3-0.4-2.6-0.7-0.7-0.6-7.7 0.6-7.7 1.4 0 0.2-0.5 0.3-1.2 0.3-0.7 0-1.2 0.2-1.2 0.4 0 0.2-0.4 0.4-1 0.4-0.5 0-1.1 0.2-1.2 0.4-0.1 0.2-0.6 0.4-1 0.4-0.5 0-0.8 0.2-0.8 0.4 0 0.2-0.5 0.4-1.2 0.4-0.7 0-1.2 0.2-1.2 0.4 0 0.2-0.5 0.4-1.2 0.4-0.7 0-1.2 0.2-1.2 0.4 0 0.2-0.5 0.4-1.2 0.4-0.7 0-1.2 0.2-1.2 0.4 0 0.2-1.4 0.4-3.4 0.4-2 0-3.4-0.2-3.4-0.4 0-0.2-0.4-0.4-0.8-0.4-0.4 0-0.8-0.2-0.8-0.4 0-0.2-0.3-0.4-0.7-0.4-0.7 0-2.5-1.9-2.5-2.7 0-0.3-0.2-0.5-0.4-0.5-0.2 0-0.4-0.5-0.4-1.2 0-0.6-0.2-1.3-0.4-1.4-0.5-0.3-0.5-5.3 0-5.6 0.2-0.2 0.4-3.5 0.4-8.6 0-8.9 0-9.1-2.1-11.3-0.6-0.7-1.1-1.4-1.1-1.6 0-0.2-0.4-0.8-0.9-1.3-1.4-1.4-1.9-2.1-1.9-2.4 0-0.1-0.2-0.5-0.5-0.8-1-1-1.9-2.2-1.9-2.4 0-0.2-0.5-0.8-1.2-1.4-0.7-0.6-1.2-1.3-1.2-1.5 0-0.2-0.5-0.9-1.2-1.6-0.7-0.7-1.2-1.6-1.2-1.9 0-0.3-0.2-0.6-0.4-0.6-0.2 0-0.4-0.3-0.4-0.8 0-0.4-0.2-0.9-0.4-1-0.5-0.3-0.5-5 0-5 0.2 0 0.4-0.5 0.4-1 0-0.6 0.4-1.4 0.8-1.9 0.4-0.5 0.8-1.1 0.8-1.4 0-0.3 0.3-0.5 0.7-0.5 0.4 0 1-0.4 1.3-0.8 0.3-0.5 1-0.8 1.7-0.8 0.6 0 1.1-0.2 1.1-0.4 0-0.2 0.5-0.4 1.2-0.4 0.7 0 1.2-0.2 1.2-0.4 0-0.2 0.6-0.4 1.4-0.4 0.8 0 1.4-0.2 1.4-0.4 0-0.2 0.5-0.4 1.2-0.4 0.7 0 1.2-0.2 1.2-0.4 0-0.2 0.6-0.4 1.4-0.6 0.8-0.1 2-0.3 2.8-0.4 0.8-0.2 1.4-0.4 1.4-0.6 0-0.2 0.5-0.4 1.2-0.4 0.7 0 1.2-0.2 1.2-0.4 0-0.2 0.5-0.4 1.1-0.4 1.8 0 3.1-0.8 4.2-2.6 0.6-0.9 1.4-2.1 1.9-2.6 0.4-0.5 0.8-1 0.8-1.2 0-0.2 0.4-0.8 1-1.4 0.5-0.7 1-1.4 1-1.6 0-0.2 0.4-0.7 0.8-1 0.4-0.3 0.8-0.9 0.8-1.2 0-0.3 0.4-0.9 0.8-1.2 0.4-0.3 0.8-0.9 0.8-1.2 0-0.3 0.4-0.9 0.8-1.2 0.4-0.3 0.8-0.8 0.8-1.1 0-0.7 4.1-4.8 5-5 2.1-0.5 7.9-0.3 9.1 0.4zm237.2-0.6l4.3 0.1 2.2 2.3c1.2 1.3 2.2 2.6 2.2 2.8 0 0.3 0.4 0.8 0.8 1.1 0.4 0.3 0.8 0.9 0.8 1.2 0 0.3 0.4 0.9 0.8 1.2 0.4 0.3 0.8 0.9 0.8 1.2 0 0.3 0.4 0.9 0.8 1.2 0.4 0.3 0.8 0.8 0.8 1 0 0.2 0.5 0.9 1 1.6 0.6 0.6 1 1.2 1 1.4 0 0.2 0.4 0.8 0.9 1.4 0.6 0.6 1.4 1.7 1.9 2.6 1.1 1.6 2.4 2.4 4.1 2.4 0.6 0 1.1 0.2 1.1 0.4 0 0.2 0.5 0.4 1.2 0.4 0.7 0 1.2 0.2 1.2 0.4 0 0.2 0.6 0.4 1.4 0.4 0.7 0 1.5 0.2 1.6 0.4 0.1 0.2 0.8 0.4 1.4 0.4 0.7 0 1.2 0.2 1.2 0.4 0 0.2 0.5 0.4 1.2 0.4 0.7 0 1.2 0.2 1.2 0.4 0 0.2 0.6 0.4 1.4 0.4 0.8 0 1.4 0.2 1.4 0.4 0 0.2 0.5 0.4 1.2 0.4 0.7 0 1.2 0.2 1.2 0.4 0 0.2 0.5 0.4 1.1 0.4 0.5 0 1.3 0.3 1.7 0.7 0.3 0.4 0.9 0.9 1.3 1 0.4 0.2 0.7 0.5 0.7 0.8 0 0.3 0.4 0.8 0.8 1.1 0.5 0.3 0.8 1 0.8 1.7 0 0.6 0.2 1.1 0.4 1.1 0.2 0 0.4 1.1 0.4 2.4 0 1.3-0.2 2.5-0.4 2.6-0.2 0.1-0.4 0.6-0.4 1 0 0.5-0.2 0.8-0.4 0.8-0.2 0-0.4 0.3-0.4 0.6 0 0.3-0.5 1.2-1.2 1.9-0.7 0.7-1.2 1.4-1.2 1.6 0 0.2-0.5 0.9-1.2 1.5-0.7 0.6-1.2 1.3-1.2 1.6 0 0.2-0.2 0.4-0.4 0.4-0.2 0-0.4 0.2-0.4 0.5 0 0.3-0.4 0.8-0.8 1.1-0.4 0.3-0.8 0.8-0.8 1 0 0.2-0.6 1.1-1.4 1.9-0.8 0.8-1.4 1.7-1.4 1.8 0 0.2-0.5 0.9-1.1 1.5-2.1 2.3-2.1 2.6-1.9 11.6 0.1 4.6 0.3 9.5 0.4 10.7 0.2 1.6 0.1 2.5-0.2 2.8-0.2 0.3-0.4 1.1-0.4 1.8 0 0.7-0.2 1.3-0.4 1.3-0.2 0-0.4 0.2-0.4 0.5 0 0.8-1.8 2.7-2.5 2.7-0.4 0-0.7 0.2-0.7 0.4 0 0.2-0.4 0.4-0.8 0.4-0.4 0-0.8 0.2-0.8 0.4 0 0.2-1.4 0.4-3.4 0.4-2 0-3.4-0.2-3.4-0.4 0-0.2-0.5-0.4-1.2-0.4-0.7 0-1.2-0.2-1.2-0.4 0-0.2-0.5-0.4-1.2-0.4-0.7 0-1.2-0.2-1.2-0.4 0-0.2-0.5-0.4-1.2-0.4-0.7 0-1.2-0.2-1.2-0.4 0-0.2-0.3-0.4-0.8-0.4-0.4 0-0.9-0.2-1-0.4-0.1-0.2-0.7-0.4-1.2-0.4-0.6 0-1-0.2-1-0.4 0-0.2-0.5-0.4-1.2-0.4-0.7 0-1.2-0.1-1.2-0.3 0-0.8-7-2-7.7-1.4-0.3 0.3-1.5 0.6-2.6 0.7-1.2 0.2-2.1 0.5-2.1 0.7 0 0.1-0.4 0.3-0.8 0.3-0.4 0-0.8 0.2-0.8 0.4 0 0.2-0.5 0.4-1.2 0.4-0.7 0-1.2 0.2-1.2 0.4 0 0.2-0.4 0.4-1 0.4-0.5 0-1.1 0.2-1.2 0.4-0.1 0.2-0.7 0.4-1.2 0.4-0.6 0-1 0.2-1 0.4 0 0.2-0.5 0.4-1.2 0.4-0.7 0-1.2 0.2-1.2 0.4 0 0.2-0.5 0.4-1 0.4-0.5 0-1 0.2-1 0.4 0 0.2-1.5 0.4-3.8 0.4-2.3 0-3.8-0.2-3.8-0.4 0-0.2-0.2-0.4-0.5-0.4-0.6 0-3.9-3.5-3.9-4.2 0-0.3-0.2-0.6-0.4-0.6-0.3 0-0.4-4.5-0.4-12.6v-12.7l-1.2-1.1c-0.7-0.6-1.2-1.3-1.2-1.6 0-0.3-0.5-1-1.2-1.6-0.7-0.6-1.2-1.3-1.2-1.6 0-0.2-0.6-1-1.3-1.7-1.4-1.5-3.5-4-4.1-5-0.2-0.4-0.7-1-1.1-1.5-4.8-5.3-3-16.6 2.7-16.6 0.3 0 0.6-0.2 0.6-0.4 0-0.2 0.7-0.4 1.6-0.4 0.9 0 1.6-0.2 1.6-0.4 0-0.2 0.5-0.4 1.2-0.4 0.7 0 1.2-0.2 1.2-0.4 0-0.2 0.5-0.4 1.2-0.4 0.6 0 1.3-0.2 1.4-0.4 0.1-0.2 0.9-0.4 1.6-0.4 0.8 0 1.4-0.2 1.4-0.4 0-0.2 0.4-0.4 1-0.4 0.5 0 1.1-0.2 1.2-0.4 0.1-0.2 0.8-0.4 1.4-0.4 0.6 0 1.3-0.2 1.4-0.4 0.1-0.2 0.8-0.4 1.4-0.4 0.7 0 1.2-0.2 1.2-0.4 0-0.2 0.3-0.4 0.6-0.4 0.7 0 1.8-0.9 1.8-1.6 0-0.2 0.2-0.4 0.4-0.4 0.2 0 0.4-0.3 0.4-0.6 0-0.3 0.2-0.6 0.4-0.6 0.2 0 0.4-0.2 0.4-0.5 0-0.3 0.4-0.8 0.8-1.1 0.4-0.3 0.8-0.8 0.8-1 0-0.3 0.5-1 1.2-1.7 0.7-0.7 1.2-1.6 1.2-1.9 0-0.3 0.2-0.6 0.3-0.6 0.2 0 0.7-0.7 1.1-1.6 0.4-0.9 0.9-1.6 1.1-1.6 0.1 0 0.3-0.2 0.3-0.5 0-0.3 0.4-0.9 0.8-1.4 0.4-0.5 0.8-1 0.8-1.2 0-0.6 2.5-3.1 3.8-3.8 0.9-0.6 2.1-0.7 5.5-0.6zm-121.3 107.5c4.1 0 6.9 0.2 7 0.4 0.1 0.2 1.1 0.4 2.2 0.4 1.1 0 2 0.2 2 0.4 0 0.2 0.7 0.4 1.6 0.4 0.9 0 1.6 0.2 1.6 0.4 0 0.2 0.4 0.4 1 0.4 0.5 0 1.1 0.2 1.2 0.4 0.1 0.2 0.6 0.4 1 0.4 0.5 0 0.8 0.2 0.8 0.4 0 0.2 0.4 0.4 0.8 0.4 0.4 0 0.8 0.2 0.8 0.4 0 0.2 0.3 0.4 0.6 0.4 0.6 0 2.1 0.7 2.6 1.2 0.1 0.1 0.7 0.5 1.4 0.8 0.7 0.3 1.5 0.9 1.8 1.2 0.3 0.4 1.2 1 2 1.4 1.4 0.7 8.8 8 8.8 8.7 0 0.2 0.3 0.7 0.7 1.1 0.4 0.3 1.2 1.4 1.7 2.4 0.6 1 1.1 1.9 1.2 2 0.2 0.1 0.4 0.8 0.6 1.5 0.1 0.7 0.4 1.3 0.6 1.3 0.2 0 0.4 0.4 0.4 0.8 0 0.4 0.2 0.8 0.4 0.8 0.2 0 0.4 0.5 0.4 1 0 0.6 0.2 1 0.4 1 0.2 0 0.4 0.5 0.4 1 0 0.6 0.2 1 0.4 1 0.2 0 0.4 0.7 0.4 1.6 0 0.9 0.2 1.6 0.4 1.6 0.2 0 0.4 0.9 0.4 2 0 1.1 0.2 2.1 0.4 2.2 0.2 0.2 0.4 3 0.4 7.2 0 4.4-0.1 7-0.4 7-0.2 0-0.4 0.9-0.4 2 0 1.1-0.2 2-0.4 2-0.2 0-0.4 0.7-0.4 1.6 0 0.9-0.2 1.6-0.4 1.6-0.2 0-0.4 0.4-0.4 1 0 0.5-0.2 1.1-0.4 1.2-0.2 0.1-0.4 0.6-0.4 1 0 0.5-0.2 0.8-0.4 0.8-0.2 0-0.4 0.4-0.4 0.8 0 0.4-0.2 0.8-0.4 0.8-0.2 0-0.5 0.7-0.6 1.6-0.1 0.9-0.4 1.6-0.6 1.6-0.2 0-0.4 0.2-0.4 0.5 0 0.3-0.7 1.4-1.6 2.6-0.9 1.2-1.6 2.2-1.6 2.3 0 0.4-8.4 8.6-8.8 8.6-0.2 0-1 0.5-1.6 1.2-0.7 0.6-1.8 1.4-2.4 1.7-0.7 0.3-1.2 0.6-1.2 0.8 0 0.2-0.4 0.3-0.8 0.3-0.4 0-0.8 0.2-0.8 0.4 0 0.2-0.4 0.4-0.8 0.4-0.4 0-0.8 0.2-0.8 0.4 0 0.2-0.4 0.4-0.8 0.4-0.4 0-0.8 0.1-0.8 0.3 0 0.2-1.1 0.6-2.4 1-3.2 1-2.5 1.9 1.5 1.9 1.5 0 3.6 0.2 4.7 0.4 1.1 0.3 2.6 0.5 3.3 0.7 0.7 0.1 1.4 0.3 1.5 0.5 0.1 0.2 0.8 0.4 1.4 0.4 0.6 0 1.2 0.1 1.4 0.3 0.1 0.2 1.1 0.6 2.2 0.9 1.1 0.3 2 0.7 2 0.9 0 0.2 0.3 0.3 0.6 0.3 0.3 0 0.9 0.2 1.3 0.4 0.4 0.2 1.3 0.6 2 0.9 0.7 0.3 1.3 0.6 1.3 0.8 0 0.2 0.3 0.3 0.6 0.3 0.4 0 1 0.4 1.5 0.8 0.5 0.4 1.1 0.8 1.4 0.8 0.3 0 0.5 0.2 0.5 0.4 0 0.2 0.3 0.4 0.7 0.4 0.4 0 1 0.4 1.3 0.8 0.3 0.4 0.9 0.8 1.2 0.8 0.3 0 0.9 0.4 1.2 0.8 0.3 0.4 0.8 0.8 1.1 0.8 0.3 0 0.5 0.2 0.5 0.4 0 0.2 0.2 0.4 0.4 0.4 0.3 0 1.2 0.7 2 1.6 0.8 0.9 1.7 1.6 1.9 1.6 0.4 0 5.3 4.9 5.3 5.3 0 0.2 0.7 1.1 1.6 1.9 0.9 0.8 1.6 1.7 1.6 2 0 0.3 0.5 1 1.2 1.6 0.7 0.6 1.2 1.3 1.2 1.6 0 0.2 0.4 0.8 0.8 1.3 0.4 0.5 0.8 1.1 0.8 1.4 0 0.3 0.2 0.5 0.4 0.5 0.2 0 0.4 0.4 0.4 0.8 0 0.4 0.2 0.8 0.4 0.8 0.2 0 0.4 0.3 0.4 0.6 0 0.3 0.2 0.6 0.4 0.6 0.2 0 0.4 0.4 0.4 0.8 0 0.4 0.2 0.8 0.4 0.8 0.2 0 0.4 0.4 0.4 0.8 0 0.4 0.2 0.8 0.4 0.8 0.2 0 0.4 0.4 0.4 0.8 0 0.4 0.2 0.8 0.4 0.8 0.2 0 0.4 0.3 0.4 0.8 0 0.4 0.2 0.9 0.4 1 0.2 0.1 0.4 0.7 0.4 1.2 0 0.6 0.2 1 0.4 1 0.2 0 0.4 0.5 0.4 1.2 0 0.7 0.2 1.2 0.4 1.2 0.2 0 0.4 0.6 0.5 1.3 0.1 0.7 0.4 2.1 0.7 3.1 0.2 1 0.6 3.1 0.8 4.6 0.6 3.8 0.3 44.9-0.2 45.3-0.2 0.2-0.7 1.1-1 2-0.3 0.9-0.9 2-1.3 2.5-0.4 0.4-0.7 1-0.7 1.2 0 0.3-0.5 1-1.1 1.6-0.6 0.5-1.3 1.4-1.5 1.8-0.3 0.4-0.8 0.9-1.2 1.2-0.4 0.2-1.3 0.9-1.8 1.5-0.6 0.6-1.3 1.1-1.6 1.1-0.2 0-0.8 0.3-1.2 0.7-0.5 0.4-1.6 1-2.5 1.3-0.9 0.3-1.8 0.8-2 1-0.2 0.3-18.6 0.4-58.7 0.4-40.1 0-58.5-0.1-58.7-0.4-0.2-0.2-1.1-0.7-2-1-0.9-0.3-2-0.9-2.5-1.3-0.4-0.4-1-0.7-1.2-0.7-0.3 0-1-0.5-1.5-1.1-0.6-0.6-1.6-1.5-2.2-1.9-0.6-0.4-1.1-0.9-1.1-1.1 0-0.2-0.5-0.9-1.2-1.5-0.7-0.6-1.2-1.3-1.2-1.6 0-0.2-0.3-0.8-0.7-1.2-0.4-0.5-1-1.6-1.3-2.5-0.3-0.9-0.7-2-1-2.3-0.6-0.7-0.8-41.5-0.2-45.2 0.2-1.4 0.6-3.4 0.8-4.4 0.3-1 0.6-2.4 0.7-3.1 0.1-0.7 0.3-1.3 0.5-1.3 0.2 0 0.4-0.5 0.4-1.2 0-0.7 0.2-1.2 0.4-1.2 0.2 0 0.4-0.4 0.4-1 0-0.5 0.2-1.1 0.4-1.2 0.2-0.1 0.4-0.6 0.4-1 0-0.5 0.2-0.8 0.4-0.8 0.2 0 0.4-0.4 0.4-0.8 0-0.4 0.2-0.8 0.4-0.8 0.2 0 0.4-0.4 0.4-0.8 0-0.4 0.2-0.8 0.4-0.8 0.2 0 0.4-0.4 0.4-0.8 0-0.4 0.2-0.8 0.4-0.8 0.2 0 0.4-0.3 0.4-0.6 0-0.3 0.2-0.6 0.4-0.6 0.2 0 0.4-0.4 0.4-0.8 0-0.4 0.2-0.8 0.4-0.8 0.2 0 0.4-0.2 0.4-0.5 0-0.3 0.4-0.9 0.8-1.4 0.4-0.5 0.8-1.1 0.8-1.3 0-0.3 0.5-1 1.2-1.6 0.7-0.6 1.2-1.3 1.2-1.6 0-0.3 0.7-1.2 1.6-2 0.9-0.8 1.6-1.7 1.6-1.8 0-0.4 4.9-5.4 5.3-5.4 0.1 0 1.2-0.9 2.3-2 1.2-1.1 2.3-2 2.6-2 0.2 0 0.7-0.4 1-0.8 0.3-0.4 0.9-0.8 1.2-0.8 0.3 0 0.9-0.4 1.2-0.8 0.3-0.4 0.9-0.8 1.3-0.8 0.4 0 0.7-0.2 0.7-0.4 0-0.2 0.3-0.4 0.7-0.4 0.3 0 0.9-0.3 1.3-0.7 0.3-0.4 1.5-1.1 2.6-1.7 1.1-0.5 2.3-1 2.7-1.2 0.4-0.2 1-0.4 1.3-0.4 0.3 0 0.6-0.2 0.6-0.4 0-0.2 0.3-0.4 0.8-0.4 0.4 0 0.9-0.2 1-0.4 0.1-0.2 0.7-0.4 1.2-0.4 0.5 0 1.1-0.2 1.2-0.4 0.1-0.2 0.8-0.4 1.4-0.4 0.6 0 1.3-0.2 1.4-0.4 0.1-0.2 0.8-0.4 1.5-0.5 0.7-0.2 2.2-0.4 3.3-0.7 1.1-0.2 3.2-0.4 4.7-0.4 3.2 0 5-1 2.7-1.5-0.7-0.1-1.3-0.4-1.4-0.6-0.1-0.1-0.7-0.3-1.2-0.3-0.6 0-1-0.2-1-0.4 0-0.2-0.4-0.4-0.8-0.4-0.4 0-0.8-0.2-0.8-0.4 0-0.2-0.4-0.4-0.8-0.4-0.4 0-0.8-0.2-0.8-0.4 0-0.2-0.4-0.4-0.8-0.4-0.4 0-0.8-0.2-0.8-0.4 0-0.2-0.3-0.4-0.6-0.4-0.3 0-0.6-0.2-0.6-0.4 0-0.2-0.2-0.4-0.5-0.4-0.3 0-1.1-0.5-1.8-1.2-0.7-0.7-1.5-1.2-1.7-1.2-0.4 0-8.8-8.2-8.8-8.6 0-0.1-0.6-1-1.4-2-1.5-2-3-5-3-6 0-0.3-0.2-0.6-0.4-0.6-0.2 0-0.4-0.4-0.4-0.8 0-0.4-0.2-0.8-0.4-0.8-0.2 0-0.4-0.3-0.4-0.8 0-0.4-0.2-0.9-0.4-1-0.2-0.1-0.4-0.7-0.4-1.2 0-0.6-0.2-1-0.4-1-0.2 0-0.4-0.7-0.4-1.6 0-0.9-0.2-1.6-0.4-1.6-0.2 0-0.4-0.9-0.4-2 0-1.1-0.2-2-0.4-2-0.3 0-0.4-2.6-0.4-7 0-4.2 0.2-7 0.4-7.2 0.2-0.1 0.4-1.1 0.4-2.2 0-1.1 0.2-2 0.4-2 0.2 0 0.4-0.7 0.4-1.6 0-0.9 0.2-1.6 0.4-1.6 0.2 0 0.4-0.4 0.4-1 0-0.5 0.2-1 0.4-1 0.2 0 0.4-0.4 0.4-1 0-0.5 0.2-1 0.4-1 0.2 0 0.4-0.4 0.4-0.8 0-0.4 0.2-0.8 0.4-0.8 0.2 0 0.5-0.6 0.6-1.3 0.2-0.7 0.4-1.4 0.6-1.5 0.1-0.1 0.6-1 1.2-2 0.5-1 1.3-2.1 1.7-2.4 0.4-0.4 0.7-0.9 0.7-1.1 0-0.7 7.4-8 8.8-8.7 0.8-0.4 1.7-1.1 2-1.5 0.4-0.4 1-0.7 1.3-0.7 0.4 0 0.7-0.2 0.7-0.4 0-0.2 0.3-0.4 0.6-0.4 0.3 0 0.6-0.2 0.6-0.4 0-0.2 0.4-0.4 0.8-0.4 0.4 0 0.8-0.2 0.8-0.4 0-0.2 0.4-0.4 0.8-0.4 0.4 0 0.8-0.2 0.8-0.4 0-0.2 0.4-0.4 0.8-0.4 0.4 0 0.8-0.2 0.8-0.4 0-0.2 0.4-0.4 1-0.4 0.5 0 1.1-0.2 1.2-0.4 0.1-0.2 0.6-0.4 1-0.4 0.5 0 0.8-0.2 0.8-0.4 0-0.2 0.7-0.4 1.6-0.4 0.9 0 1.6-0.2 1.6-0.4 0-0.2 0.9-0.4 2-0.4 1.1 0 2.1-0.2 2.2-0.4 0.1-0.2 2.9-0.4 7-0.4zm-87.8 10c2.5 0.9 7.4 3.2 7.8 3.6 0.1 0.1 0.7 0.5 1.3 0.8 0.6 0.3 1.1 0.7 1.1 0.9 0 0.2 0.2 0.3 0.4 0.3 0.6 0 8 7.5 8 8.1 0 0.2 0.3 0.7 0.7 1.1 0.4 0.3 1 1.1 1.3 1.7 0.3 0.6 0.7 1.1 0.9 1.1 0.1 0 0.3 0.4 0.3 0.8 0 0.4 0.2 0.8 0.4 0.8 0.2 0 0.4 0.3 0.4 0.8 0 0.4 0.2 0.9 0.4 1 0.2 0.1 0.4 0.6 0.4 1 0 0.5 0.2 0.8 0.4 0.8 0.2 0 0.4 0.5 0.4 1.2 0 0.7 0.2 1.2 0.4 1.2 0.2 0 0.4 0.7 0.4 1.6 0 0.9 0.2 1.6 0.4 1.6 0.3 0 0.4 2.9 0.4 8 0 4.9-0.2 8-0.4 8.2-0.2 0.1-0.4 0.9-0.4 1.6 0 0.8-0.2 1.4-0.4 1.4-0.2 0-0.4 0.5-0.4 1.2 0 0.7-0.2 1.2-0.4 1.2-0.2 0-0.4 0.3-0.4 0.6 0 0.9-2.4 5.8-2.8 5.8-0.2 0-0.4 0.3-0.4 0.7 0 0.4-0.4 1-0.8 1.3-0.4 0.3-0.8 0.8-0.8 1.1 0 0.5-6.2 6.9-6.8 6.9-0.2 0-0.4 0.2-0.4 0.4 0 0.2-0.2 0.4-0.5 0.4-0.3 0-0.8 0.4-1.1 0.8-0.3 0.4-0.9 0.8-1.3 0.8-0.4 0-0.7 0.2-0.7 0.4 0 0.2-0.3 0.4-0.6 0.4-0.3 0-0.6 0.1-0.6 0.3 0 0.2-0.6 0.5-1.3 0.8-0.7 0.3-1.6 0.7-2 0.9-0.4 0.2-1 0.4-1.3 0.4-0.3 0-0.6 0.2-0.6 0.4 0 0.2-0.5 0.4-1.2 0.4-0.7 0-1.2 0.2-1.2 0.4 0 0.2 1.5 0.4 3.6 0.4 2.1 0 3.6 0.2 3.6 0.4 0 0.2 0.9 0.4 2 0.4 1.1 0 2 0.2 2 0.4 0 0.2 0.6 0.4 1.4 0.4 0.8 0 1.4 0.2 1.4 0.4 0 0.2 0.5 0.4 1.2 0.4 0.7 0 1.2 0.2 1.2 0.4 0 0.2 0.5 0.4 1.2 0.4 0.7 0 1.2 0.2 1.2 0.4 0 0.2 0.4 0.4 0.8 0.4 0.4 0 0.8 0.2 0.8 0.4 0 0.2 0.3 0.4 0.8 0.4 0.8 0 4.1 1.6 4.3 2.1 0.1 0.2 0.4 0.3 0.7 0.3 0.3 0 0.6 0.2 0.6 0.4 0 0.2 0.4 0.4 0.8 0.4 0.4 0 0.8 0.2 0.8 0.4 0 0.2 0.3 0.4 0.6 0.4 0.8 0 1.2 1.5 0.5 2.1-0.3 0.3-1.1 1-1.9 1.5-1.7 1.2-8.9 8.4-10.5 10.4-0.5 0.8-1.5 1.9-2.1 2.6-0.5 0.7-1.1 1.5-1.2 1.9-0.2 0.4-0.4 0.7-0.6 0.7-0.2 0-0.5 0.5-0.8 1.2-0.3 0.7-0.7 1.2-0.8 1.2-0.2 0-0.4 0.2-0.4 0.5 0 0.3-0.4 0.9-0.8 1.4-0.4 0.5-0.8 1.1-0.8 1.5 0 0.3-0.1 0.6-0.3 0.6-0.2 0-0.6 0.6-0.9 1.3-0.3 0.7-0.9 1.8-1.3 2.4-0.4 0.5-0.7 1.3-0.7 1.7 0 0.3-0.2 0.6-0.4 0.6-0.2 0-0.4 0.4-0.4 0.8 0 0.4-0.2 0.8-0.4 0.8-0.2 0-0.4 0.4-0.4 0.8 0 0.4-0.2 0.8-0.4 0.8-0.2 0-0.4 0.4-0.4 1 0 0.5-0.2 1.1-0.4 1.2-0.2 0.1-0.4 0.6-0.4 1 0 0.5-0.2 0.8-0.4 0.8-0.2 0-0.4 0.5-0.4 1.2 0 0.7-0.2 1.2-0.4 1.2-0.2 0-0.4 0.5-0.4 1.2 0 0.7-0.2 1.2-0.4 1.2-0.2 0-0.4 0.7-0.4 1.6 0 0.9-0.2 1.6-0.4 1.6-0.2 0-0.4 0.6-0.4 1.4 0 0.7-0.2 1.5-0.4 1.6-0.2 0.1-0.4 1.1-0.4 2.2 0 1.1-0.2 2.1-0.4 2.2-0.2 0.1-0.4 1.7-0.4 3.4 0 1.9-0.2 3.2-0.4 3.2-0.3 0-0.4 5.5-0.4 15.6v15.6h-28.4c-18.7 0-28.4-0.1-28.4-0.4 0-0.2-0.6-0.4-1.4-0.4-0.7 0-1.5-0.2-1.6-0.4-0.1-0.2-0.6-0.4-1-0.4-0.5 0-0.8-0.2-0.8-0.4 0-0.2-0.4-0.4-0.8-0.4-0.4 0-0.8-0.2-0.8-0.4 0-0.2-0.2-0.4-0.5-0.4-0.3 0-0.9-0.4-1.4-0.8-0.5-0.4-1-0.8-1.1-0.8-0.3 0-4.6-4.3-4.6-4.7 0-0.2-0.4-0.6-0.8-0.9-0.4-0.3-0.8-0.9-0.8-1.3 0-0.4-0.1-0.7-0.3-0.7-0.4 0-1.3-1.9-1.3-2.7 0-0.3-0.2-0.5-0.4-0.5-0.2 0-0.4-0.4-0.4-1 0-0.5-0.2-1.1-0.4-1.2-0.2-0.1-0.4-0.9-0.4-1.8 0-0.9-0.2-1.7-0.4-1.8-0.5-0.3-0.5-26.1 0-26.4 0.2-0.1 0.4-1.5 0.4-3 0-1.6 0.2-2.8 0.4-2.8 0.2 0 0.4-0.7 0.4-1.6 0-0.8 0.2-1.7 0.4-1.8 0.2-0.1 0.4-0.9 0.4-1.6 0-0.8 0.2-1.4 0.4-1.4 0.2 0 0.4-0.5 0.4-1.2 0-0.7 0.2-1.2 0.4-1.2 0.2 0 0.4-0.4 0.4-0.8 0-0.4 0.2-0.8 0.4-0.8 0.2 0 0.4-0.5 0.4-1.2 0-0.7 0.2-1.2 0.4-1.2 0.2 0 0.4-0.4 0.4-0.8 0-0.4 0.2-0.8 0.4-0.8 0.2 0 0.4-0.4 0.4-0.8 0-0.4 0.2-0.8 0.4-0.8 0.2 0 0.4-0.4 0.4-0.8 0-0.4 0.2-0.8 0.4-0.8 0.2 0 0.4-0.2 0.4-0.5 0-0.3 0.3-0.9 0.8-1.4 0.4-0.4 0.8-1.2 1-1.6 0.1-0.5 0.4-0.9 0.6-0.9 0.2 0 0.4-0.2 0.4-0.5 0-0.3 0.5-1.1 1.2-1.8 0.7-0.7 1.2-1.5 1.2-1.7 0-0.4 7.4-8 7.9-8 0.2 0 1-0.6 1.9-1.4 0.8-0.8 1.6-1.4 1.8-1.4 0.1 0 0.7-0.4 1.2-0.8 0.5-0.4 1.2-0.8 1.5-0.8 0.3 0 0.5-0.2 0.5-0.4 0-0.2 0.3-0.4 0.6-0.4 0.4 0 1-0.4 1.5-0.8 0.5-0.4 1.1-0.8 1.4-0.8 0.3 0 0.5-0.2 0.5-0.4 0-0.2 0.3-0.4 0.8-0.4 0.4 0 0.9-0.2 1-0.4 0.1-0.2 0.7-0.4 1.2-0.4 0.6 0 1-0.2 1-0.4 0-0.2 0.4-0.4 0.8-0.4 0.4 0 0.8-0.2 0.8-0.4 0-0.2 0.5-0.4 1.2-0.4 0.7 0 1.2-0.2 1.2-0.4 0-0.2 0.5-0.4 1.2-0.4 0.7 0 1.2-0.2 1.2-0.4 0-0.2 0.6-0.4 1.4-0.4 0.8 0 1.4-0.2 1.4-0.4 0-0.2 0.9-0.4 2-0.4 1.1 0 2-0.2 2-0.4 0-0.2 1.5-0.4 3.6-0.4 2.1 0 3.6-0.2 3.6-0.4 0-0.2-0.5-0.4-1.2-0.4-0.7 0-1.2-0.2-1.2-0.4 0-0.2-0.3-0.4-0.8-0.4-0.4 0-0.9-0.2-1-0.4-0.1-0.2-0.6-0.4-1-0.4-0.5 0-0.8-0.2-0.8-0.4 0-0.2-0.4-0.4-0.8-0.4-0.4 0-0.8-0.2-0.8-0.4 0-0.2-0.3-0.4-0.6-0.4-0.3 0-0.6-0.2-0.6-0.4 0-0.2-0.3-0.4-0.7-0.4-0.4 0-1-0.4-1.3-0.8-0.3-0.4-0.7-0.8-0.9-0.8-0.7 0-7.9-7.1-7.9-7.7 0-0.3-0.4-0.8-0.8-1.1-0.4-0.3-0.8-0.9-0.8-1.3 0-0.4-0.2-0.7-0.3-0.7-0.2 0-0.8-0.9-1.3-1.9-0.5-1-1-2.2-1.2-2.6-0.2-0.4-0.4-1-0.4-1.3 0-0.3-0.2-0.6-0.4-0.6-0.2 0-0.4-0.5-0.4-1.2 0-0.7-0.2-1.2-0.4-1.2-0.2 0-0.4-0.6-0.4-1.4 0-0.7-0.2-1.5-0.4-1.6-0.2-0.2-0.4-3.3-0.4-8.2 0-5.1 0.1-8 0.4-8 0.2 0 0.4-0.7 0.4-1.6 0-0.9 0.2-1.6 0.4-1.6 0.2 0 0.4-0.5 0.4-1.2 0-0.7 0.2-1.2 0.4-1.2 0.2 0 0.4-0.4 0.4-0.8 0-0.4 0.2-0.8 0.4-0.8 0.2 0 0.4-0.3 0.4-0.8 0-0.4 0.2-0.9 0.4-1 0.2-0.1 0.4-0.6 0.4-1 0-0.5 0.2-0.8 0.3-0.8 0.2 0 0.6-0.5 0.9-1.1 0.3-0.6 0.9-1.4 1.3-1.7 0.4-0.4 0.7-0.9 0.7-1.2 0-0.9 9.3-9.6 10.3-9.6 0.2 0 0.5-0.1 0.6-0.3 0.3-0.8 7.2-3.6 11.3-4.6 2.6-0.7 18.5 0 20.8 0.9zm200 0c2.5 0.9 7.4 3.2 7.8 3.6 0.1 0.1 0.7 0.5 1.3 0.8 0.6 0.3 1.1 0.7 1.1 0.9 0 0.2 0.2 0.3 0.4 0.3 0.6 0 8 7.5 8 8.1 0 0.2 0.3 0.7 0.7 1.1 0.4 0.3 1 1.1 1.3 1.7 0.3 0.6 0.7 1.1 0.9 1.1 0.2 0 0.3 0.4 0.3 0.8 0 0.4 0.2 0.8 0.4 0.8 0.2 0 0.4 0.3 0.4 0.8 0 0.4 0.2 0.9 0.4 1 0.2 0.1 0.4 0.6 0.4 1 0 0.5 0.2 0.8 0.4 0.8 0.2 0 0.4 0.5 0.4 1.2 0 0.7 0.2 1.2 0.4 1.2 0.2 0 0.4 0.7 0.4 1.6 0 0.9 0.2 1.6 0.4 1.6 0.3 0 0.4 2.9 0.4 8 0 4.9-0.2 8-0.4 8.2-0.2 0.1-0.4 0.9-0.4 1.6 0 0.8-0.2 1.4-0.4 1.4-0.2 0-0.4 0.5-0.4 1.2 0 0.7-0.2 1.2-0.4 1.2-0.2 0-0.4 0.3-0.4 0.6 0 0.9-2.4 5.8-2.8 5.8-0.2 0-0.4 0.3-0.4 0.7 0 0.4-0.4 1-0.8 1.3-0.4 0.3-0.8 0.8-0.8 1.1 0 0.5-6.2 6.9-6.8 6.9-0.2 0-0.4 0.2-0.4 0.4 0 0.2-0.2 0.4-0.5 0.4-0.3 0-0.8 0.4-1.1 0.8-0.3 0.4-0.9 0.8-1.3 0.8-0.4 0-0.7 0.2-0.7 0.4 0 0.2-0.3 0.4-0.6 0.4-0.3 0-0.6 0.1-0.6 0.3 0 0.2-0.6 0.5-1.3 0.8-0.7 0.3-1.6 0.7-2 0.9-0.4 0.2-1 0.4-1.3 0.4-0.3 0-0.6 0.2-0.6 0.4 0 0.2-0.5 0.4-1.2 0.4-0.7 0-1.2 0.2-1.2 0.4 0 0.2 1.5 0.4 3.6 0.4 2.1 0 3.6 0.2 3.6 0.4 0 0.2 0.8 0.4 1.8 0.4 1 0 1.9 0.2 2 0.4 0.1 0.2 0.9 0.4 1.6 0.4 0.8 0 1.4 0.2 1.4 0.4 0 0.2 0.5 0.4 1.2 0.4 0.7 0 1.2 0.2 1.2 0.4 0 0.2 0.5 0.4 1.2 0.4 0.7 0 1.2 0.2 1.2 0.4 0 0.2 0.4 0.4 0.8 0.4 0.4 0 0.8 0.2 0.8 0.4 0 0.2 0.3 0.4 0.7 0.4 1 0 5.7 2.4 5.7 2.9 0 0.2 0.4 0.3 0.8 0.3 0.4 0 0.8 0.2 0.8 0.4 0 0.2 0.2 0.4 0.5 0.4 0.3 0 1 0.4 1.5 0.8 0.5 0.4 1.1 0.8 1.2 0.8 0.2 0 0.8 0.4 1.3 0.9 0.5 0.5 1.5 1.4 2.3 1.9 1.6 1.2 7.6 7.1 7.6 7.6 0 0.2 0.6 1 1.4 1.8 0.8 0.9 1.4 1.7 1.4 1.9 0 0.2 0.4 0.7 0.8 1.2 0.5 0.5 0.9 1.3 1.1 1.8 0.1 0.5 0.3 0.9 0.5 0.9 0.2 0 0.4 0.3 0.4 0.6 0 0.3 0.2 0.6 0.4 0.6 0.2 0 0.4 0.4 0.4 0.8 0 0.4 0.2 0.8 0.4 0.8 0.2 0 0.4 0.4 0.4 0.8 0 0.4 0.2 0.8 0.4 0.8 0.2 0 0.4 0.4 0.4 0.8 0 0.4 0.2 0.8 0.4 0.8 0.2 0 0.4 0.5 0.4 1.2 0 0.7 0.2 1.2 0.4 1.2 0.2 0 0.4 0.4 0.4 0.8 0 0.4 0.2 0.8 0.4 0.8 0.2 0 0.4 0.5 0.4 1.2 0 0.7 0.2 1.2 0.4 1.2 0.2 0 0.4 0.6 0.4 1.4 0 0.7 0.2 1.5 0.4 1.6 0.2 0.1 0.4 1 0.4 1.8 0 0.9 0.2 1.6 0.4 1.6 0.2 0 0.4 1.2 0.4 2.8 0 1.5 0.2 2.9 0.4 3 0.3 0.2 0.4 5 0.4 13.2 0 8.2-0.1 13-0.4 13.2-0.2 0.1-0.4 1-0.4 1.8 0 0.9-0.2 1.6-0.4 1.6-0.2 0-0.4 0.5-0.4 1.2 0 0.7-0.2 1.2-0.4 1.2-0.2 0-0.4 0.2-0.4 0.5 0 0.8-0.9 2.7-1.3 2.7-0.2 0-0.3 0.3-0.3 0.7 0 0.4-0.4 1-0.8 1.3-0.4 0.3-0.8 0.7-0.8 0.9 0 0.4-4.3 4.7-4.7 4.7-0.2 0-0.6 0.4-0.9 0.8-0.3 0.4-0.9 0.8-1.3 0.8-0.4 0-0.7 0.2-0.7 0.4 0 0.2-0.4 0.4-0.8 0.4-0.4 0-0.8 0.2-0.8 0.4 0 0.2-0.3 0.4-0.8 0.4-0.4 0-0.9 0.2-1 0.4-0.1 0.2-0.9 0.4-1.6 0.4-0.8 0-1.4 0.2-1.4 0.4 0 0.3-9.7 0.4-28.4 0.4h-28.4v-15.6c0-10.1-0.1-15.6-0.4-15.6-0.2 0-0.4-1.3-0.4-3.2 0-1.7-0.2-3.3-0.4-3.4-0.2-0.1-0.4-1.1-0.4-2.2 0-1.1-0.2-2.1-0.4-2.2-0.2-0.1-0.4-0.9-0.4-1.6 0-0.8-0.2-1.4-0.4-1.4-0.2 0-0.4-0.7-0.4-1.6 0-0.9-0.2-1.6-0.4-1.6-0.2 0-0.4-0.5-0.4-1.2 0-0.7-0.2-1.2-0.4-1.2-0.2 0-0.4-0.5-0.4-1.2 0-0.7-0.2-1.2-0.4-1.2-0.2 0-0.4-0.3-0.4-0.8 0-0.4-0.2-0.9-0.4-1-0.2-0.1-0.4-0.7-0.4-1.2 0-0.6-0.2-1-0.4-1-0.2 0-0.4-0.4-0.4-0.8 0-0.4-0.2-0.8-0.4-0.8-0.2 0-0.4-0.4-0.4-0.8 0-0.4-0.2-0.8-0.4-0.8-0.2 0-0.4-0.3-0.4-0.6 0-0.4-0.3-1.2-0.7-1.7-0.4-0.6-1-1.7-1.3-2.4-0.3-0.7-0.7-1.3-0.9-1.3-0.2 0-0.3-0.4-0.3-0.8 0-0.4-0.1-0.8-0.3-0.8-0.2 0-0.6-0.5-0.9-1.1-0.3-0.6-0.7-1.3-0.9-1.5-0.2-0.2-1-1.4-1.8-2.6-0.8-1.2-1.7-2.4-2-2.7-0.3-0.3-1-1.2-1.6-2-1.2-1.6-8.7-9.1-11.3-11.3-1.7-1.4-1.9-2.8-0.6-2.8 0.3 0 0.6-0.2 0.6-0.4 0-0.2 0.4-0.4 0.8-0.4 0.4 0 0.8-0.2 0.8-0.4 0-0.2 0.3-0.4 0.6-0.4 0.3 0 0.6-0.1 0.6-0.3 0-0.4 1.9-1.3 2.7-1.3 0.3 0 0.5-0.2 0.5-0.4 0-0.2 0.5-0.4 1-0.4 0.5 0 1-0.2 1-0.4 0-0.2 0.4-0.4 0.8-0.4 0.4 0 0.8-0.2 0.8-0.4 0-0.2 0.5-0.4 1.2-0.4 0.7 0 1.2-0.2 1.2-0.4 0-0.2 0.5-0.4 1.2-0.4 0.7 0 1.2-0.2 1.2-0.4 0-0.2 0.6-0.4 1.4-0.4 0.8 0 1.4-0.2 1.4-0.4 0-0.2 0.9-0.4 2-0.4 1.1 0 2-0.2 2-0.4 0-0.2 1.5-0.4 3.6-0.4 2.1 0 3.6-0.2 3.6-0.4 0-0.2-0.5-0.4-1.2-0.4-0.7 0-1.2-0.2-1.2-0.4 0-0.2-0.3-0.4-0.8-0.4-0.4 0-0.9-0.2-1-0.4-0.1-0.2-0.6-0.4-1-0.4-0.5 0-0.8-0.2-0.8-0.4 0-0.2-0.4-0.4-0.8-0.4-0.4 0-0.8-0.2-0.8-0.4 0-0.2-0.3-0.4-0.6-0.4-0.3 0-0.6-0.2-0.6-0.4 0-0.2-0.3-0.4-0.7-0.4-0.4 0-1-0.4-1.3-0.8-0.3-0.4-0.7-0.8-0.9-0.8-0.7 0-7.9-7.1-7.9-7.7 0-0.3-0.4-0.8-0.8-1.1-0.4-0.3-0.8-0.9-0.8-1.3 0-0.4-0.2-0.7-0.3-0.7-0.2 0-0.8-0.9-1.3-1.9-0.5-1-1-2.2-1.2-2.6-0.2-0.4-0.4-1-0.4-1.3 0-0.3-0.2-0.6-0.4-0.6-0.2 0-0.4-0.5-0.4-1.2 0-0.7-0.2-1.2-0.4-1.2-0.2 0-0.4-0.6-0.4-1.4 0-0.7-0.2-1.5-0.4-1.6-0.2-0.2-0.4-3.3-0.4-8.2 0-5.1 0.1-8 0.4-8 0.2 0 0.4-0.7 0.4-1.6 0-0.9 0.2-1.6 0.4-1.6 0.2 0 0.4-0.5 0.4-1.2 0-0.7 0.2-1.2 0.4-1.2 0.2 0 0.4-0.4 0.4-0.8 0-0.4 0.2-0.8 0.4-0.8 0.2 0 0.4-0.3 0.4-0.8 0-0.4 0.2-0.9 0.4-1 0.2-0.1 0.4-0.6 0.4-1 0-0.5 0.1-0.8 0.3-0.8 0.2 0 0.6-0.5 0.9-1.1 0.3-0.6 0.9-1.4 1.3-1.7 0.4-0.4 0.7-0.9 0.7-1.2 0-0.9 9.3-9.6 10.3-9.6 0.2 0 0.5-0.1 0.6-0.3 0.3-0.8 7.2-3.6 11.3-4.6 2.6-0.7 18.5 0 20.8 0.9z"/>
		<path id="path1" class="s1" d=""/>
		<path id="path2" class="s1" d=""/>
		<path id="path3" class="s1" d=""/>
		<path id="path4" class="s1" d=""/>
	</g>
</svg>