<svg id="svg" xmlns="http://www.w3.org/2000/svg" xmlns:xlink="http://www.w3.org/1999/xlink" width="400" height="400" viewBox="0, 0, 400,400"><g id="svgg"><path id="path0" d="M178.516 0.510 C 135.082 5.166,99.634 21.137,66.278 51.076 C 57.458 58.993,55.499 62.064,56.946 65.708 C 57.355 66.736,89.098 98.955,127.488 137.305 C 204.951 214.688,199.535 209.960,204.748 204.748 C 209.081 200.414,208.351 198.734,197.266 187.530 C 186.031 176.176,186.533 177.121,190.820 175.396 C 210.350 167.534,231.829 188.492,224.683 208.436 C 215.087 235.221,177.432 230.054,173.894 201.468 C 173.087 194.947,169.158 191.715,164.148 193.451 C 155.686 196.384,160.038 216.900,171.569 228.431 C 196.880 253.741,240.126 235.807,240.126 200.000 C 240.126 169.765,208.082 150.366,180.930 164.163 L 176.299 166.517 162.759 152.993 C 147.168 137.422,148.307 139.388,152.916 135.994 C 201.785 100.007,271.053 130.242,278.972 191.016 C 283.150 223.078,264.995 256.429,235.421 271.021 C 225.627 275.853,224.888 275.888,222.394 271.633 C 213.310 256.132,186.690 256.132,177.606 271.633 C 175.112 275.888,174.373 275.853,164.579 271.021 C 127.534 252.743,110.658 207.915,126.568 170.049 C 130.530 160.617,129.002 155.469,122.239 155.469 C 117.865 155.469,116.458 156.938,113.357 164.742 C 93.458 214.818,118.187 270.170,168.555 288.296 C 171.240 289.262,173.438 290.520,173.438 291.091 C 173.438 300.014,184.968 311.469,195.635 313.141 C 209.810 315.364,226.563 303.421,226.563 291.091 C 226.563 290.520,228.760 289.262,231.445 288.296 C 309.205 260.313,315.236 152.171,241.056 115.970 C 207.644 99.664,172.285 103.839,139.910 127.912 C 138.795 128.742,136.774 127.019,124.974 115.179 L 111.328 101.486 114.844 98.382 C 152.166 65.420,210.717 57.879,256.641 80.118 C 271.301 87.217,274.865 89.768,274.052 92.578 C 268.341 112.317,287.658 131.636,307.422 125.952 C 312.428 124.512,325.770 152.150,329.968 172.656 C 348.292 262.170,273.220 343.390,183.048 331.608 C 87.782 319.160,37.312 214.104,86.612 130.872 C 90.433 124.420,90.774 121.171,87.926 118.324 C 74.633 105.031,51.755 162.210,53.371 204.688 C 57.926 324.438,193.433 388.840,289.114 316.730 C 348.898 271.674,364.836 184.657,324.725 122.315 L 321.242 116.902 323.453 112.943 C 336.481 89.625,310.347 63.533,287.020 76.567 L 283.024 78.800 278.914 76.032 C 228.574 42.131,156.068 46.391,107.345 86.112 L 101.019 91.269 87.268 77.471 L 73.518 63.672 79.618 58.378 C 178.949 -27.826,335.572 16.522,376.989 142.578 C 394.494 195.858,386.310 255.377,354.999 302.505 C 349.171 311.276,349.061 311.374,346.702 309.859 C 324.725 295.743,295.743 324.725,309.859 346.702 C 311.374 349.061,311.276 349.171,302.505 354.999 C 214.100 413.734,95.202 386.543,40.029 294.971 C 5.902 238.330,5.370 163.973,38.686 107.364 C 44.675 97.187,44.399 91.404,37.865 90.178 C 32.757 89.220,29.417 93.203,20.918 110.391 C -26.406 206.090,8.145 320.624,100.391 373.842 C 167.379 412.488,253.083 408.207,316.197 363.062 C 322.635 358.457,322.803 358.390,325.724 359.265 C 345.670 365.241,365.241 345.670,359.265 325.724 C 358.391 322.805,358.460 322.631,363.009 316.258 C 448.970 195.847,379.015 27.566,232.465 2.226 C 223.314 0.644,187.802 -0.486,178.516 0.510 M305.952 88.768 C 317.057 94.038,313.513 111.314,301.116 112.342 C 292.788 113.032,287.891 108.462,287.891 100.000 C 287.891 89.990,296.822 84.436,305.952 88.768 M207.104 276.192 C 210.934 278.639,212.766 282.720,212.340 287.858 C 211.087 302.967,188.913 302.967,187.660 287.858 C 186.738 276.741,197.684 270.174,207.104 276.192 M338.827 321.950 C 348.325 326.548,348.305 340.298,338.793 344.812 C 326.615 350.591,314.807 335.339,323.657 325.260 C 328.096 320.204,333.007 319.133,338.827 321.950 " stroke="none" fill="#000000" fill-rule="evenodd"></path></g></svg>