<svg version="1.2" xmlns="http://www.w3.org/2000/svg" viewBox="0 0 400 400" width="400" height="400">
	<title>leaving2-dark-svg</title>
	<style>
		.s0 { fill: #dcebf6 } 
	</style>
	<g id="svgg">
		<path id="path0" fill-rule="evenodd" class="s0" d="m229.3 1.2c18.2 4.6 32.9 20.3 36.7 39.1 1.9 9.2 1.4 63.6-0.5 67.1-6.6 12.1-23.4 12.9-30.1 1.4l-2.2-3.7-0.4-30.1c-0.4-33.4-0.3-32.7-5.9-37.3-4.8-4-5.8-4.1-46.9-4.1l-38.2 0.1 3.9 1.5c8.1 3.1 15.9 10.9 19.3 19.5l1.8 4.3 0.4 257.4h25.7c30.6 0 32.8-0.5 37.7-8.4l1.8-2.9 0.8-76.6 2-3.5c6.4-11.4 23.2-11.4 29.6 0l2 3.5 0.2 37.5c0.3 50.1-0.8 55.5-14.9 69.5-13.3 13.2-18.4 14.5-56.2 14.5h-28.7v9.7c0 25.6-11.4 39.5-32.8 40.1l-8.2 0.3-53.7-18c-63.8-21.3-62.9-20.8-69.6-34.4l-2.5-5.1v-318.8l2.3-4.7c4-8.1 11.1-14.6 19.5-17.6 5.6-2 199.3-2.3 207.1-0.3zm95.5 83.9c4.9 2.5 73.2 71.7 74.4 75.3 1.6 4.9 0.7 12.3-1.7 15.9-4.6 6.5-71.2 71.9-74.3 72.9-8.6 2.8-17.8-0.7-21.6-8.2l-2-3.8-0.5-53.6h-34.7c-37.9 0-38 0-42.8-4.5-7.6-7.1-6.5-20.6 2-26.5l3.2-2.2 36.2-0.2 36.1-0.2 0.3-27.2c0.3-32.5 1.2-35.5 11.6-38.9 4.3-1.3 9.8-0.9 13.8 1.2z"/>
	</g>
</svg>