<svg id="svg" xmlns="http://www.w3.org/2000/svg" xmlns:xlink="http://www.w3.org/1999/xlink" width="400" height="400" viewBox="0, 0, 400,400"><g id="svgg"><path id="path0" d="M230.657 51.558 C 222.949 56.258,222.949 68.742,230.657 73.442 C 233.102 74.933,234.660 74.994,269.920 74.997 L 306.636 75.000 254.181 127.539 C 197.620 184.190,199.999 181.551,200.003 187.644 C 200.008 195.270,204.730 199.992,212.356 199.997 C 218.449 200.001,215.810 202.380,272.461 145.819 L 325.000 93.364 325.003 130.080 C 325.006 165.340,325.067 166.898,326.558 169.343 C 331.258 177.051,343.742 177.051,348.442 169.343 C 350.869 165.361,350.869 59.639,348.442 55.657 C 344.797 49.679,348.327 50.006,287.500 50.006 C 234.695 50.006,233.133 50.049,230.657 51.558 M93.359 76.534 C 73.749 81.728,59.380 95.090,52.584 114.453 L 50.391 120.703 50.391 212.500 L 50.391 304.297 52.584 310.547 C 58.786 328.218,71.782 341.214,89.453 347.416 L 95.703 349.609 187.500 349.609 L 279.297 349.609 285.547 347.416 C 303.218 341.214,316.214 328.218,322.416 310.547 L 324.609 304.297 324.843 270.680 L 325.076 237.062 323.277 234.394 C 318.132 226.758,306.888 226.729,301.760 234.337 C 300.020 236.920,300.000 237.257,299.985 263.592 C 299.963 300.091,298.809 305.953,289.881 314.881 C 279.644 325.118,281.366 324.949,187.500 324.949 C 93.634 324.949,95.356 325.118,85.119 314.881 C 74.882 304.644,75.051 306.366,75.051 212.500 C 75.051 118.634,74.882 120.356,85.119 110.119 C 94.134 101.104,99.435 100.061,136.408 100.026 C 162.734 100.000,163.081 99.979,165.663 98.240 C 173.327 93.075,173.327 81.925,165.663 76.760 C 161.961 74.266,102.626 74.080,93.359 76.534 " stroke="none" fill="#212529" fill-rule="evenodd"></path></g></svg>