<svg id="svg" xmlns="http://www.w3.org/2000/svg" xmlns:xlink="http://www.w3.org/1999/xlink" width="400" height="400" viewBox="0, 0, 400,400"><g id="svgg"><path id="path0" d="M1.563 25.781 C 0.024 27.320,0.000 28.385,-0.000 94.878 L -0.000 162.411 1.736 163.628 C 4.391 165.487,395.609 165.487,398.264 163.628 L 400.000 162.411 400.000 94.908 L 400.000 27.405 398.290 25.812 C 396.066 23.739,391.901 23.724,389.844 25.781 C 388.307 27.318,388.281 28.385,388.281 89.844 L 388.281 152.344 345.703 152.344 L 303.125 152.344 303.125 89.980 L 303.125 27.616 301.317 25.917 C 299.069 23.806,295.327 23.715,292.860 25.712 L 291.016 27.205 290.807 89.775 L 290.598 152.344 248.424 152.344 L 206.250 152.344 206.250 90.199 L 206.250 28.054 204.332 26.136 C 201.795 23.599,198.205 23.599,195.668 26.136 L 193.750 28.054 193.750 90.199 L 193.750 152.344 151.597 152.344 L 109.445 152.344 109.214 130.399 L 108.984 108.454 107.140 106.961 C 104.736 105.016,101.505 105.066,98.933 107.088 L 96.875 108.707 96.875 130.525 L 96.875 152.344 54.297 152.344 L 11.719 152.344 11.719 89.874 L 11.719 27.405 10.009 25.812 C 7.784 23.739,3.619 23.724,1.563 25.781 M98.574 26.027 C 96.891 27.818,96.875 28.115,96.875 57.611 L 96.875 87.387 98.933 89.006 C 101.505 91.029,104.736 91.078,107.140 89.132 L 108.984 87.638 108.984 57.422 L 108.984 27.206 107.140 25.712 C 104.580 23.639,100.682 23.782,98.574 26.027 M230.514 42.346 C 228.605 43.333,225.969 45.491,224.655 47.142 L 222.266 50.144 222.027 85.814 C 221.742 128.412,222.049 129.890,232.311 135.379 C 237.156 137.970,259.683 137.999,264.453 135.420 C 274.993 129.722,275.343 128.319,275.639 90.625 C 275.961 49.696,275.714 48.121,268.155 42.937 C 263.866 39.995,235.907 39.556,230.514 42.346 M327.734 42.078 C 318.849 46.246,318.750 46.746,318.750 87.712 L 318.750 122.349 320.774 126.410 C 327.251 139.409,356.102 142.603,366.878 131.516 C 372.654 125.573,372.738 124.887,372.485 85.850 C 372.236 47.372,372.347 48.068,365.686 43.359 L 362.371 41.016 346.615 40.814 C 332.576 40.634,330.519 40.772,327.734 42.078 M262.065 54.861 C 265.313 59.498,262.061 66.288,258.594 62.109 C 257.209 60.441,240.825 60.421,238.626 62.085 C 234.963 64.855,231.911 57.464,235.313 54.063 C 237.258 52.117,260.632 52.815,262.065 54.861 M358.929 54.353 C 362.534 57.958,359.776 65.012,355.905 62.085 C 353.749 60.454,337.657 60.454,335.501 62.085 C 331.838 64.855,328.786 57.464,332.188 54.063 C 333.733 52.517,357.349 52.773,358.929 54.353 M263.281 85.938 L 263.281 96.094 248.828 96.094 L 234.375 96.094 234.375 85.938 L 234.375 75.781 248.828 75.781 L 263.281 75.781 263.281 85.938 M360.156 85.938 L 360.156 96.094 345.703 96.094 L 331.250 96.094 331.250 85.938 L 331.250 75.781 345.703 75.781 L 360.156 75.781 360.156 85.938 M235.938 109.801 C 235.938 113.455,239.342 114.844,248.297 114.844 C 257.485 114.844,260.938 113.548,260.938 110.100 C 260.938 109.236,261.474 108.594,262.195 108.594 C 264.900 108.594,263.333 120.045,260.251 122.800 L 257.649 125.124 247.896 124.867 C 235.463 124.539,234.375 123.697,234.375 114.410 C 234.375 111.053,234.705 108.594,235.156 108.594 C 235.586 108.594,235.938 109.137,235.938 109.801 M332.813 109.801 C 332.813 116.361,355.183 117.286,357.854 110.836 C 359.351 107.223,360.156 108.229,360.156 113.711 C 360.156 123.282,357.945 125.000,345.628 125.000 C 336.944 125.000,333.615 124.053,332.054 121.137 C 331.015 119.194,330.995 108.594,332.031 108.594 C 332.461 108.594,332.813 109.137,332.813 109.801 M2.656 183.125 L 0.000 185.781 0.000 200.000 L 0.000 214.219 2.656 216.875 L 5.313 219.531 200.000 219.531 L 394.687 219.531 397.344 216.875 L 400.000 214.219 400.000 200.000 L 400.000 185.781 397.344 183.125 L 394.687 180.469 302.062 180.469 L 209.436 180.469 207.843 182.179 C 205.673 184.507,205.773 188.342,208.058 190.489 C 209.778 192.104,210.562 192.188,224.074 192.188 L 238.281 192.188 238.281 200.000 L 238.281 207.813 200.000 207.813 L 161.719 207.813 161.719 200.000 L 161.719 192.188 174.943 192.188 L 188.168 192.187 189.787 190.129 C 191.922 187.415,191.848 184.281,189.598 182.167 L 187.790 180.469 96.551 180.469 L 5.313 180.469 2.656 183.125 M71.094 200.000 L 71.094 207.813 41.406 207.813 L 11.719 207.813 11.719 200.000 L 11.719 192.188 41.406 192.188 L 71.094 192.188 71.094 200.000 M149.219 200.000 L 149.219 207.813 116.406 207.813 L 83.594 207.813 83.594 200.000 L 83.594 192.188 116.406 192.188 L 149.219 192.188 149.219 200.000 M316.406 200.000 L 316.406 207.813 283.594 207.813 L 250.781 207.813 250.781 200.000 L 250.781 192.188 283.594 192.188 L 316.406 192.188 316.406 200.000 M388.281 200.000 L 388.281 207.813 358.594 207.813 L 328.906 207.813 328.906 200.000 L 328.906 192.188 358.594 192.188 L 388.281 192.188 388.281 200.000 M1.736 236.372 L 0.000 237.589 -0.000 305.092 L -0.000 372.595 1.710 374.188 C 3.914 376.242,7.804 376.242,10.009 374.188 L 11.719 372.595 11.719 310.126 L 11.719 247.656 54.297 247.656 L 96.875 247.656 96.875 310.020 L 96.875 372.384 98.683 374.083 C 100.931 376.194,104.673 376.285,107.140 374.288 L 108.984 372.795 109.193 310.225 L 109.402 247.656 151.576 247.656 L 193.750 247.656 193.750 309.801 L 193.750 371.946 195.668 373.864 C 198.205 376.401,201.795 376.401,204.332 373.864 L 206.250 371.946 206.250 309.801 L 206.250 247.656 248.403 247.656 L 290.556 247.656 290.786 269.992 L 291.016 292.327 292.860 293.820 C 295.264 295.766,298.495 295.716,301.067 293.693 L 303.125 292.074 303.125 269.865 L 303.125 247.656 345.703 247.656 L 388.281 247.656 388.281 310.126 L 388.281 372.595 389.991 374.188 C 392.196 376.242,396.086 376.242,398.290 374.188 L 400.000 372.595 400.000 305.092 L 400.000 237.589 398.264 236.372 C 395.609 234.513,4.391 234.513,1.736 236.372 M40.367 263.768 C 37.926 264.518,35.389 266.133,33.180 268.341 C 27.366 274.156,27.262 274.997,27.515 314.150 C 27.764 352.628,27.653 351.931,34.314 356.641 L 37.629 358.984 52.604 359.237 C 81.780 359.728,81.209 360.661,81.233 312.458 L 81.250 277.651 79.226 273.590 C 74.241 263.586,55.982 258.971,40.367 263.768 M139.057 263.196 C 133.575 264.960,128.864 268.956,126.064 274.219 C 123.917 278.255,123.814 346.593,125.949 350.494 C 130.097 358.071,133.498 359.241,151.592 359.316 C 168.097 359.383,170.719 358.671,175.345 352.858 L 177.734 349.856 177.973 314.186 C 178.258 271.590,177.944 270.077,167.689 264.635 C 164.223 262.795,143.536 261.755,139.057 263.196 M331.740 263.647 C 327.253 265.247,323.317 268.793,320.898 273.415 L 318.750 277.522 318.767 312.394 C 318.791 360.671,318.215 359.728,347.396 359.237 L 362.371 358.984 365.686 356.641 C 372.347 351.931,372.236 352.628,372.485 314.150 C 372.738 275.113,372.654 274.427,366.878 268.484 C 361.328 262.774,341.751 260.079,331.740 263.647 M66.866 277.583 C 68.864 279.908,69.781 291.406,67.969 291.406 C 67.539 291.406,67.188 290.863,67.188 290.199 C 67.188 283.718,44.847 282.642,42.215 288.997 C 40.636 292.807,39.841 291.836,39.871 286.133 C 39.923 276.300,41.891 274.909,55.343 275.189 C 64.829 275.387,65.013 275.426,66.866 277.583 M163.741 277.583 C 165.739 279.908,166.656 291.406,164.844 291.406 C 164.414 291.406,164.063 290.863,164.063 290.199 C 164.063 286.545,160.658 285.156,151.703 285.156 C 142.515 285.156,139.063 286.452,139.063 289.900 C 139.063 290.764,138.526 291.406,137.805 291.406 C 135.100 291.406,136.667 279.955,139.749 277.200 L 142.351 274.876 152.104 275.133 C 161.684 275.386,161.891 275.430,163.741 277.583 M355.881 275.933 C 358.856 277.289,360.156 280.438,360.156 286.289 C 360.156 291.771,359.351 292.777,357.854 289.164 C 355.183 282.714,332.813 283.639,332.813 290.199 C 332.813 290.863,332.461 291.406,332.031 291.406 C 330.679 291.406,331.080 280.277,332.505 278.243 C 334.739 275.054,350.527 273.494,355.881 275.933 M68.750 314.063 L 68.750 324.219 54.297 324.219 L 39.844 324.219 39.844 314.063 L 39.844 303.906 54.297 303.906 L 68.750 303.906 68.750 314.063 M165.625 314.063 L 165.625 324.219 151.172 324.219 L 136.719 324.219 136.719 314.063 L 136.719 303.906 151.172 303.906 L 165.625 303.906 165.625 314.063 M360.156 314.063 L 360.156 324.219 345.703 324.219 L 331.250 324.219 331.250 314.063 L 331.250 303.906 345.703 303.906 L 360.156 303.906 360.156 314.063 M292.860 311.650 L 291.016 313.143 291.016 342.969 L 291.016 372.794 292.860 374.288 C 295.420 376.361,299.318 376.218,301.426 373.973 C 303.108 372.183,303.125 371.875,303.125 342.780 L 303.125 313.395 301.067 311.775 C 298.495 309.753,295.264 309.703,292.860 311.650 M44.095 337.915 C 46.251 339.546,62.343 339.546,64.499 337.915 C 68.162 335.145,71.214 342.536,67.812 345.938 C 66.267 347.483,42.651 347.227,41.071 345.647 C 37.466 342.042,40.224 334.988,44.095 337.915 M141.406 337.891 C 142.791 339.559,159.175 339.579,161.374 337.915 C 165.037 335.145,168.089 342.536,164.687 345.938 C 162.742 347.883,139.368 347.185,137.935 345.139 C 134.687 340.502,137.939 333.712,141.406 337.891 M335.501 337.915 C 337.657 339.546,353.749 339.546,355.905 337.915 C 359.776 334.988,362.534 342.042,358.929 345.647 C 357.349 347.227,333.733 347.483,332.188 345.938 C 328.786 342.536,331.838 335.145,335.501 337.915 " stroke="none" fill="#000000" fill-rule="evenodd"></path></g></svg>