<svg id="svg" xmlns="http://www.w3.org/2000/svg" xmlns:xlink="http://www.w3.org/1999/xlink" width="400" height="400" viewBox="0, 0, 400,400"><g id="svgg"><path id="path0" d="M57.680 0.749 C 18.863 7.832,-4.001 47.051,9.155 83.984 C 11.993 91.952,14.013 95.162,30.050 117.188 C 46.276 139.473,49.139 144.621,51.537 155.830 C 54.066 167.649,57.896 172.185,66.175 173.165 C 75.678 174.291,82.114 168.710,84.335 157.422 C 86.873 144.523,88.216 142.058,106.268 117.188 C 127.993 87.256,131.019 80.039,130.301 59.869 C 128.972 22.482,94.111 -5.897,57.680 0.749 M310.336 1.574 C 291.387 6.539,272.889 24.451,279.688 31.250 C 282.990 34.552,285.947 33.470,293.109 26.339 C 314.315 5.222,345.764 8.222,361.702 32.882 C 372.199 49.123,370.884 66.867,357.833 85.089 C 351.155 94.412,351.601 100.313,358.984 100.313 C 365.381 100.312,377.312 81.269,380.147 66.533 C 387.930 26.081,350.331 -8.905,310.336 1.574 M78.465 13.675 C 109.590 20.268,126.913 55.173,113.360 83.984 C 112.147 86.563,104.261 98.164,95.836 109.766 C 78.522 133.607,75.902 138.271,73.012 150.391 C 69.410 165.492,66.325 165.099,62.920 149.105 C 60.897 139.600,56.750 132.347,40.651 110.156 C 24.321 87.646,21.759 83.320,19.478 74.401 C 10.485 39.239,42.680 6.094,78.465 13.675 M179.297 23.140 C 146.425 26.527,131.567 33.200,139.418 41.051 C 141.818 43.451,141.768 43.453,152.734 40.625 C 162.734 38.047,165.236 37.758,164.590 39.258 C 158.468 53.456,152.734 73.965,149.230 94.195 C 148.342 99.321,147.455 104.256,147.259 105.161 C 146.962 106.528,146.141 106.886,142.396 107.281 C 124.859 109.129,122.393 110.200,122.809 115.785 C 123.235 121.509,125.267 122.274,135.892 120.710 C 146.467 119.153,145.463 118.103,144.129 129.326 C 142.252 145.107,143.140 148.438,149.219 148.438 C 154.119 148.437,154.993 146.440,156.571 131.637 C 157.350 124.334,158.050 118.286,158.128 118.196 C 159.505 116.603,207.949 116.245,225.868 117.694 L 231.815 118.175 232.713 125.689 C 234.618 141.623,235.981 160.469,236.464 177.539 L 236.967 195.313 194.968 195.313 L 152.968 195.313 153.242 179.620 L 153.516 163.928 151.671 162.433 C 149.198 160.427,145.855 160.546,143.316 162.730 L 141.232 164.522 140.814 179.917 L 140.397 195.313 110.788 195.313 L 81.179 195.313 81.695 192.565 C 82.291 189.385,80.933 185.460,78.850 184.345 C 75.038 182.305,69.531 184.949,69.531 188.820 C 69.531 189.705,69.312 191.528,69.043 192.871 L 68.555 195.312 48.730 195.313 C 32.299 195.313,28.906 195.126,28.906 194.223 C 28.906 186.145,32.288 166.221,35.646 154.509 C 38.307 145.231,35.512 139.901,29.074 141.979 C 20.217 144.837,13.549 197.331,18.235 227.316 C 36.219 342.406,155.553 410.317,262.790 366.489 C 276.018 361.082,279.152 356.504,272.959 351.633 C 271.933 350.826,271.094 349.656,271.094 349.032 C 271.094 347.082,268.037 345.000,265.173 345.000 C 262.804 345.000,261.579 345.868,255.641 351.757 L 248.828 358.515 240.505 360.839 C 235.927 362.117,230.554 363.407,228.566 363.705 L 224.950 364.247 226.628 360.053 C 235.657 337.496,242.426 307.030,239.258 303.214 C 236.045 299.344,228.125 301.830,228.125 306.709 C 228.125 318.856,212.840 364.643,208.195 366.409 C 205.641 367.380,184.358 367.439,181.840 366.482 C 178.427 365.184,170.862 346.192,166.096 326.953 C 163.826 317.789,159.881 297.671,160.277 297.276 C 160.427 297.125,168.372 297.378,177.931 297.839 C 211.938 299.476,232.663 297.564,233.890 292.677 C 235.652 285.656,232.126 284.256,215.215 285.260 C 202.135 286.037,176.523 285.727,163.612 284.636 L 158.053 284.166 156.746 271.966 C 154.705 252.914,153.969 242.363,153.402 224.023 L 152.876 207.031 201.772 207.031 L 250.668 207.031 252.287 204.973 C 254.638 201.984,254.377 198.972,251.563 196.604 L 249.219 194.632 249.211 184.621 C 249.199 168.693,246.475 129.483,244.830 121.578 L 244.363 119.329 248.158 119.851 C 260.326 121.527,277.226 124.704,287.284 127.206 L 298.828 130.078 301.010 138.672 C 302.732 145.455,307.019 169.245,307.029 172.070 C 307.039 174.884,313.147 176.744,316.495 174.952 C 319.870 173.146,319.361 162.832,314.878 142.188 C 313.142 134.192,312.896 134.524,318.927 136.708 C 339.621 144.200,353.591 152.179,355.083 157.359 C 356.667 162.859,359.110 175.211,359.755 180.980 C 360.427 186.995,362.122 189.063,366.380 189.063 C 373.244 189.063,373.817 184.997,369.790 164.844 C 352.357 77.583,267.018 14.100,179.297 23.140 M317.761 28.144 C 304.850 31.404,296.982 43.044,305.168 46.774 C 308.301 48.201,309.777 47.829,313.636 44.640 C 329.630 31.423,349.552 50.659,336.740 66.948 C 331.993 72.982,339.441 80.567,345.462 75.831 C 351.698 70.926,355.050 56.199,352.012 47.054 C 347.449 33.315,331.706 24.623,317.761 28.144 M59.457 30.104 C 31.543 37.868,25.387 75.160,49.452 90.715 C 76.149 107.970,109.326 82.872,100.076 52.418 C 98.217 46.298,96.881 45.083,92.427 45.463 C 87.913 45.848,86.076 48.919,87.489 53.720 C 94.033 75.962,72.311 92.864,54.902 79.076 C 38.530 66.109,48.905 41.406,70.724 41.406 C 76.457 41.406,78.281 39.980,78.281 35.499 C 78.281 29.519,70.046 27.158,59.457 30.104 M208.195 35.935 C 213.130 37.811,222.933 67.048,228.181 95.543 C 229.115 100.610,229.746 104.890,229.583 105.052 C 229.421 105.214,221.657 104.967,212.330 104.502 C 200.327 103.904,190.284 103.897,177.960 104.479 C 168.383 104.930,160.424 105.186,160.275 105.047 C 159.775 104.583,164.101 83.333,166.789 73.047 C 171.821 53.790,178.441 37.184,181.596 35.906 C 183.885 34.979,205.744 35.003,208.195 35.935 M240.483 41.566 L 249.325 44.034 256.889 51.962 C 265.155 60.627,271.982 69.770,278.758 81.250 C 285.299 92.334,295.497 115.625,293.808 115.625 C 293.423 115.625,289.473 114.772,285.030 113.730 C 275.955 111.601,256.083 108.159,248.199 107.351 L 243.000 106.819 242.512 103.995 C 238.043 78.111,232.776 57.650,226.624 42.278 L 224.940 38.072 228.290 38.586 C 230.133 38.868,235.620 40.209,240.483 41.566 M294.141 68.229 C 313.789 82.803,330.589 102.442,342.037 124.219 C 348.175 135.896,348.241 135.686,339.690 131.703 C 333.165 128.663,325.961 125.843,313.379 121.404 L 309.180 119.922 305.890 110.547 C 299.144 91.322,292.805 78.686,280.825 60.582 L 279.297 58.273 282.813 60.354 C 284.746 61.498,289.844 65.042,294.141 68.229 M308.984 187.191 C 263.619 193.913,233.978 234.527,242.527 278.252 C 245.102 291.421,247.705 296.094,252.465 296.094 C 258.762 296.094,259.830 292.487,256.515 282.422 C 246.760 252.804,262.290 218.532,291.531 205.152 C 342.900 181.645,397.795 233.232,377.805 286.226 C 374.961 293.768,372.677 297.274,352.808 324.609 C 330.601 355.162,328.334 359.400,324.590 377.344 C 321.728 391.058,314.216 391.671,311.388 378.421 C 307.481 360.117,304.903 355.089,285.998 328.906 C 267.692 303.553,265.973 302.062,261.074 307.277 C 257.586 310.990,258.247 312.338,274.623 334.875 C 292.528 359.515,295.174 364.405,298.494 378.977 C 302.127 394.924,305.999 399.330,316.860 399.878 C 328.017 400.442,333.582 395.162,336.603 381.147 C 340.412 363.476,340.934 362.538,366.333 327.734 C 390.752 294.273,394.083 286.583,394.083 263.672 C 394.083 217.590,353.001 180.668,308.984 187.191 M69.064 209.570 C 69.275 210.967,69.649 216.328,69.893 221.484 C 70.382 231.797,72.680 248.875,75.036 259.706 C 76.788 267.759,76.823 267.648,72.904 266.375 C 57.274 261.298,36.199 249.975,35.162 246.098 C 32.114 234.708,28.906 215.377,28.906 208.403 C 28.906 207.131,30.348 207.031,48.793 207.031 L 68.679 207.031 69.064 209.570 M140.885 224.414 C 141.431 243.074,142.378 257.108,144.137 272.627 C 144.744 277.982,145.125 282.479,144.985 282.619 C 144.068 283.536,109.955 277.299,97.558 273.948 L 91.016 272.180 88.941 263.980 C 85.292 249.552,82.853 232.104,81.774 212.695 L 81.459 207.031 110.917 207.031 L 140.376 207.031 140.885 224.414 M312.088 223.501 C 279.583 227.540,265.782 268.782,289.125 292.125 C 308.535 311.535,341.632 306.368,353.816 282.024 C 368.624 252.439,345.069 219.402,312.088 223.501 M327.957 237.674 C 342.124 242.893,349.763 260.863,343.563 274.389 C 330.904 302.008,290.270 293.841,290.241 263.672 C 290.222 243.625,308.991 230.687,327.957 237.674 M64.844 276.743 C 68.926 278.236,74.143 280.125,76.438 280.940 L 80.610 282.422 84.311 292.578 C 90.913 310.698,97.467 324.000,106.600 337.820 C 111.234 344.831,111.112 344.831,101.099 337.821 C 77.153 321.058,59.326 300.570,46.548 275.127 C 44.580 271.207,42.969 267.841,42.969 267.647 C 42.969 267.453,46.221 268.809,50.195 270.661 C 54.170 272.512,60.762 275.249,64.844 276.743 M112.381 290.109 C 119.835 291.643,130.655 293.507,136.426 294.253 C 145.821 295.466,146.956 295.777,147.270 297.218 C 147.462 298.104,148.357 303.047,149.258 308.203 C 152.377 326.047,157.766 346.331,162.427 357.770 C 163.731 360.970,164.635 363.751,164.435 363.950 C 163.901 364.484,156.135 362.719,147.589 360.122 L 140.099 357.846 133.511 350.993 C 117.901 334.755,107.299 317.300,96.902 290.724 L 95.260 286.526 97.044 286.924 C 98.025 287.142,104.927 288.576,112.381 290.109 " stroke="none" fill="#fff" fill-rule="evenodd"></path></g></svg>