<svg id="svg" xmlns="http://www.w3.org/2000/svg" xmlns:xlink="http://www.w3.org/1999/xlink" width="400" height="400" viewBox="0, 0, 400,400"><g id="svgg"><path id="path0" d="M298.899 55.903 C 294.437 57.558,290.950 60.497,288.494 64.675 L 286.328 68.359 286.104 110.547 C 285.854 157.688,285.740 156.548,291.321 162.745 C 296.487 168.481,298.828 169.061,318.150 169.392 L 335.129 169.684 335.338 254.310 L 335.547 338.937 337.403 340.912 C 339.734 343.394,343.163 344.183,346.182 342.932 C 351.022 340.927,350.781 345.603,350.781 253.631 L 350.781 169.684 367.773 169.393 C 389.397 169.021,395.023 166.730,398.826 156.748 C 400.889 151.333,400.232 68.545,398.100 65.234 C 395.579 61.320,392.738 58.537,389.453 56.764 C 385.371 54.562,304.589 53.793,298.899 55.903 M354.178 78.805 C 372.631 83.424,375.231 111.290,357.985 119.594 C 354.895 121.082,352.649 121.425,344.141 121.711 C 330.377 122.175,331.250 121.352,331.250 133.856 C 331.250 146.200,331.315 146.094,323.699 146.094 C 315.930 146.094,316.406 148.336,316.406 111.770 C 316.406 72.740,314.055 76.957,335.461 77.589 C 344.102 77.844,352.525 78.391,354.178 78.805 M331.771 90.365 C 330.607 91.528,331.204 108.364,332.446 109.395 C 333.977 110.666,346.487 109.884,350.333 108.277 C 356.702 105.617,356.715 93.608,350.353 90.949 C 347.637 89.815,332.788 89.347,331.771 90.365 M68.165 121.510 C 53.898 125.384,49.742 130.541,38.274 158.594 C 29.642 179.709,31.505 177.670,23.047 175.260 C 5.683 170.313,-0.000 174.042,0.000 190.381 C 0.000 203.777,5.055 210.938,14.512 210.938 C 16.160 210.938,16.465 211.212,16.034 212.305 C 8.079 232.452,7.607 236.430,7.239 286.424 C 6.798 346.512,6.246 345.278,33.594 345.278 C 56.433 345.278,60.156 341.718,60.156 319.883 L 60.156 310.938 147.992 310.938 L 235.828 310.938 236.078 322.983 C 236.496 343.093,239.459 345.532,263.021 345.159 L 277.996 344.922 281.381 342.568 C 283.357 341.193,285.497 338.767,286.523 336.738 L 288.281 333.263 288.281 289.815 C 288.281 240.694,287.953 236.950,282.143 219.812 L 279.192 211.108 282.653 210.718 C 291.558 209.715,296.094 203.015,296.094 190.868 C 296.094 172.658,290.045 169.842,266.317 177.001 C 265.310 177.305,263.438 173.437,257.024 157.794 C 246.392 131.866,244.272 128.906,232.259 123.216 L 226.953 120.703 149.609 120.550 C 84.743 120.421,71.604 120.576,68.165 121.510 M219.922 135.663 C 227.107 139.521,227.725 140.607,240.810 172.379 C 256.041 209.362,255.834 208.528,250.565 211.740 C 247.142 213.827,49.348 214.196,45.339 212.123 C 40.617 209.681,40.713 206.929,45.972 193.959 C 68.748 137.793,68.978 137.377,78.901 134.315 C 84.295 132.651,216.669 133.916,219.922 135.663 M92.257 249.110 C 94.558 251.952,94.516 275.796,92.207 278.105 C 89.846 280.467,88.721 280.555,64.278 280.309 C 35.559 280.019,37.979 281.445,37.678 264.629 C 37.341 245.813,35.694 246.798,67.062 247.064 L 90.765 247.266 92.257 249.110 M255.643 249.045 C 257.350 250.752,257.422 251.347,257.422 263.672 C 257.422 281.622,260.009 280.018,230.584 280.306 C 199.256 280.612,200.444 281.342,200.906 262.085 C 201.295 245.902,199.358 246.890,230.253 247.103 C 253.680 247.264,253.879 247.280,255.643 249.045 " stroke="none" fill="#000000" fill-rule="evenodd"></path></g></svg>