<svg id="svg" xmlns="http://www.w3.org/2000/svg" xmlns:xlink="http://www.w3.org/1999/xlink" width="400" height="400" viewBox="0, 0, 400,400"><g id="svgg"><path id="path0" d="M185.156 0.522 C 137.241 8.109,104.757 40.250,95.989 88.751 C 89.795 123.010,97.942 159.655,121.116 201.772 L 126.375 211.328 102.055 211.719 C 77.229 212.117,76.091 212.262,73.287 215.359 C 70.053 218.934,-0.000 384.584,0.005 388.646 C 0.011 393.064,1.649 396.184,5.189 398.517 C 8.691 400.826,391.309 400.826,394.811 398.517 C 398.383 396.163,399.989 393.071,399.995 388.539 C 400.000 384.821,332.142 223.508,327.673 216.612 C 324.833 212.230,324.289 212.141,297.975 211.719 L 273.613 211.328 278.969 201.563 C 309.092 146.638,314.030 99.853,294.098 58.203 C 274.998 18.290,228.483 -6.338,185.156 0.522 M219.531 26.396 C 267.031 39.239,291.833 87.522,278.115 140.445 C 269.613 173.248,234.405 234.219,201.996 272.266 L 200.000 274.609 198.004 272.266 C 172.945 242.849,140.120 189.842,128.237 159.605 C 102.378 93.809,128.192 35.812,188.281 24.702 C 193.444 23.748,213.820 24.852,219.531 26.396 M190.707 71.549 C 169.021 77.380,158.309 101.244,168.134 121.831 C 180.488 147.716,219.273 147.743,231.871 121.875 C 245.314 94.272,220.233 63.609,190.707 71.549 M204.219 95.620 C 212.817 99.213,213.500 109.969,205.477 115.430 C 195.823 122.000,183.913 108.852,191.046 99.500 C 194.530 94.933,199.248 93.543,204.219 95.620 M147.558 245.117 C 150.958 250.166,155.193 256.304,156.969 258.758 L 160.197 263.218 158.419 264.317 C 157.441 264.922,136.426 275.704,111.719 288.279 C 87.012 300.853,64.254 312.523,61.145 314.212 L 55.494 317.283 57.630 312.290 C 58.805 309.545,66.621 291.249,75.000 271.633 L 90.234 235.968 115.805 235.953 L 141.375 235.938 147.558 245.117 M326.822 275.889 C 336.203 297.846,343.579 316.108,343.214 316.473 C 342.849 316.839,317.180 330.332,286.173 346.459 L 229.795 375.781 217.433 375.781 L 205.072 375.781 169.528 340.216 C 141.339 312.010,134.227 304.497,135.156 303.907 C 135.801 303.497,145.090 298.708,155.798 293.263 L 175.268 283.364 176.769 285.237 C 193.811 306.501,196.762 308.603,204.836 305.229 C 209.547 303.261,232.080 275.024,250.365 248.176 L 258.700 235.938 284.233 235.953 L 309.766 235.969 326.822 275.889 M140.234 346.094 L 169.914 375.781 100.211 375.781 L 30.507 375.781 31.195 374.023 C 34.068 366.681,40.122 353.323,40.965 352.467 C 41.780 351.638,108.635 316.894,110.160 316.507 C 110.377 316.451,123.910 329.766,140.234 346.094 M361.811 357.637 L 369.416 375.391 347.989 375.598 C 336.205 375.713,316.903 375.713,305.097 375.598 L 283.632 375.391 318.541 357.259 C 337.741 347.287,353.620 339.298,353.828 339.505 C 354.036 339.713,357.628 347.872,361.811 357.637 " stroke="none" fill="#fff" fill-rule="evenodd"></path></g></svg>