<svg version="1.2" xmlns="http://www.w3.org/2000/svg" viewBox="0 0 400 400" width="400" height="400">
	<title>savespot2-dark-svg</title>
	<style>
		.s0 { fill: #dcebf6 } 
	</style>
	<g id="svgg">
		<path id="path0" fill-rule="evenodd" class="s0" d="m308.9 106.6c0.2 30.6-22.7 83.3-72.2 166.4-16.8 28.3-21.5 32.5-36.7 32.5-15.2 0-19.9-4.2-36.6-32.3-49.4-83-72.4-135.7-72.3-165.8 0.1-52.4 37.7-96.7 90.2-106.2 65.1-11.9 127.2 39.4 127.6 105.4zm-152-5.4c-0.1 32 33.6 53.2 62.1 38.9 35.2-17.6 30.7-69.1-7.1-80.2-27.3-8-54.8 12.6-55 41.3zm-17.8 175c7.5 12.4 7.5 11.7 0.2 12.8-16.7 2.7-35.3 8.7-43 13.8-4.9 3.2-4.9 3.4-1.2 6 29.6 20.5 131.1 25.6 186.9 9.6 12.8-3.7 25.8-9.9 25.8-12.2 0-4.2-26.9-14-47.1-17.2-7.3-1.1-7.2-0.1-0.4-11.8 7.6-13.1 5.9-12.1 16.9-9.7 43 9.6 63.3 28.1 53.3 48.5-23.8 48.6-237.2 48.4-261.1-0.2-8.1-16.5 4.9-33 33.7-42.8 6.3-2.1 11-3.4 25.4-6.8 3.8-0.9 4.5-0.3 10.6 10zm-87.7 13.1c0.5 6.5-1.1 9.1-8.7 13.9-23.9 15.1-24.6 26.4-2.6 40.7 66.4 43.1 257.8 42.4 321.6-1.2 20.1-13.7 18.9-24.8-4.4-39.5-17.3-10.9-6.6-32.1 11-22 47.5 27.2 41.5 68.5-13.5 92.9-83.9 37.4-253.1 33.9-323.2-6.8-42.1-24.4-42.8-59.7-1.7-85 10.6-6.5 20.6-3.3 21.5 7z"/>
	</g>
</svg>