<svg version="1.2" xmlns="http://www.w3.org/2000/svg" viewBox="0 0 400 400" width="400" height="400">
	<title>startRoute-svg</title>
	<style>
		.s0 { fill: #002147 } 
	</style>
	<g id="svgg">
		<path id="path0" fill-rule="evenodd" class="s0" d="m397.5 40.2c3 9.2 3.1 27.5 0.1 36.4-4.3 12.3-45.2 97-48.4 100.2-3.9 3.7-10.2 4.2-14.9 1-3.3-2.2-46.9-92.9-50-104-9.1-32.2 13.4-67.8 46.2-73.3 29.2-4.8 57.6 12.1 67 39.7zm-66.6 14.7c-3.9 9.5 7.5 18.6 16.4 13.1 6.6-4.1 6.6-14.7 0-18.8-6-3.7-13.6-1.1-16.4 5.7zm-92.9 101.4l59.4-0.1 11.1 23.5h-59.9c-33 0-62.2 0.3-64.9 0.7-28.1 4.1-34.4 42-9 54.4 6.2 3.1 11.4 3.4 46 3.5h32v23.5l-38.6-0.2-38.7-0.3-5.7-2.1c-49.1-17.9-46.2-89.5 4.2-101.7 3.8-0.9 15.3-1.1 64.1-1.2zm83.9 93.6c-0.1 14-9.6 23.5-23.5 23.5-24.8 0-32.9-33.4-10.7-44.4 16.1-8.1 34.2 3 34.2 20.9zm22.2-11.6h5.2c45.3 0 67.9 58.7 35.1 91.4-15 15-18 15.6-72.2 15.6h-42.3v-23.4h37.5c48-0.1 51-0.5 59.8-9.4 18.2-18.1 6.9-47.1-19.5-50.4l-3.6-0.4zm-268 17.4c4.1 6.2 56.9 129.4 57 132.6 0.1 7-4.8 11.7-11.9 11.7-3.8 0-5.6-0.9-29.4-14.5l-25.3-14.5-25.3 14.5c-30.1 17.2-31.3 17.6-37.8 11.1-6.3-6.3-7.4-2.7 23.6-73.6 14.8-33.9 27.7-63.1 28.5-64.9q2.6-5.3 8.2-6.6c4.5-1 10.3 1 12.4 4.2zm169.2 67.1c10.2 20.6-11.3 42.1-31.9 31.8-17.2-8.5-17.2-33.5 0-42.1 11.9-5.9 26-1.4 31.9 10.3zm-90.8-0.9h24v23.4h-38.3l-4.9-11.1c-2.6-6.2-4.8-11.4-4.8-11.8 0-0.3 10.8-0.5 24-0.5z"/>
	</g>
</svg>