<svg id="visual" viewBox="0 0 900 600" width="900" height="600" xmlns="http://www.w3.org/2000/svg" xmlns:xlink="http://www.w3.org/1999/xlink" version="1.1"><rect x="0" y="0" width="900" height="600" fill="#002147"></rect><defs><linearGradient id="grad1_0" x1="33.3%" y1="0%" x2="100%" y2="100%"><stop offset="20%" stop-color="#002147" stop-opacity="1"></stop><stop offset="80%" stop-color="#002147" stop-opacity="1"></stop></linearGradient></defs><defs><linearGradient id="grad2_0" x1="0%" y1="0%" x2="66.7%" y2="100%"><stop offset="20%" stop-color="#002147" stop-opacity="1"></stop><stop offset="80%" stop-color="#002147" stop-opacity="1"></stop></linearGradient></defs><g transform="translate(900, 0)"><path d="M0 405.6C-32.6 389 -65.2 372.3 -97.1 362.2C-129 352.1 -160.2 348.5 -196.5 340.3C-232.8 332.2 -274.2 319.5 -286.8 286.8C-299.4 254.2 -283.2 201.7 -291 168C-298.7 134.3 -330.4 119.6 -353.5 94.7C-376.6 69.9 -391.1 34.9 -405.6 0L0 0Z" fill="#75B2DD"></path></g><g transform="translate(0, 600)"><path d="M0 -405.6C38.2 -408.4 76.5 -411.1 105 -391.8C133.5 -372.5 152.4 -331.2 177 -306.6C201.6 -281.9 232.1 -273.9 255.3 -255.3C278.4 -236.6 294.3 -207.3 311.8 -180C329.2 -152.7 348.2 -127.3 364.2 -97.6C380.1 -67.9 392.8 -33.9 405.6 0L0 0Z" fill="#75B2DD"></path></g></svg>