<svg id="visual" viewBox="0 0 2000 900" width="2000" height="900" xmlns="http://www.w3.org/2000/svg" xmlns:xlink="http://www.w3.org/1999/xlink" version="1.1"><g transform="translate(1893.7081738766096 -35.825887196312124)"><path d="M522.6 -548.8C669.3 -499.6 774.9 -327.4 810.8 -140.5C846.8 46.5 813.1 248.3 706.3 383.9C599.5 519.6 419.6 589.1 251.3 619.7C83 650.3 -73.8 641.8 -196.4 579.8C-319.1 517.7 -407.7 402.1 -483.5 276.4C-559.3 150.7 -622.4 14.9 -610.7 -117.5C-599 -249.9 -512.6 -378.9 -398.3 -433.7C-284.1 -488.6 -142.1 -469.3 22.9 -496.6C187.9 -523.9 375.8 -597.9 522.6 -548.8" fill="#91c1e4"></path></g></svg>