<svg id="visual" viewBox="0 0 2000 900" width="2000" height="900" xmlns="http://www.w3.org/2000/svg" xmlns:xlink="http://www.w3.org/1999/xlink" version="1.1"><g transform="translate(-44.98372732137699 910.3464161081381)"><path d="M463.1 -531.8C592.3 -443.4 683.9 -290.1 682.8 -143.1C681.6 3.8 587.6 144.4 480.8 228.9C374 313.3 254.3 341.7 127.3 417.3C0.2 492.9 -134.3 615.7 -267.9 618.2C-401.5 620.7 -534.2 502.9 -576.4 364.4C-618.5 226 -570.2 67 -538.1 -91.3C-505.9 -249.5 -489.8 -407.1 -402.8 -502.9C-315.8 -598.7 -157.9 -632.9 4.5 -638.2C166.9 -643.6 333.8 -620.2 463.1 -531.8" fill="#83bae0"></path></g></svg>