<svg id="visual" viewBox="0 0 2000 900" width="2000" height="900" xmlns="http://www.w3.org/2000/svg" xmlns:xlink="http://www.w3.org/1999/xlink" version="1.1"><g transform="translate(136.73478951949863 886.6581819313687)"><path d="M430.8 -558.8C504.7 -451.5 473.9 -264.8 486.6 -99.6C499.3 65.6 555.3 209.3 516.9 319.6C478.4 429.8 345.4 506.7 193.8 584.4C42.2 662.2 -128 740.8 -293.3 718.5C-458.6 696.3 -619 573.1 -710.5 411.7C-801.9 250.2 -824.4 50.4 -785.1 -132.4C-745.7 -315.3 -644.4 -481.3 -503.3 -576.8C-362.1 -672.2 -181.1 -697.1 -1.3 -695.6C178.5 -694 357 -666.1 430.8 -558.8" fill="#91c1e4"></path></g></svg>