<svg id="visual" viewBox="0 0 2000 900" width="2000" height="900" xmlns="http://www.w3.org/2000/svg" xmlns:xlink="http://www.w3.org/1999/xlink" version="1.1"><g transform="translate(108.96517403508233 828.4324288327247)"><path d="M315.1 -384C375.7 -324.7 369.5 -194.4 354.6 -90.4C339.7 13.5 316 91.1 287.9 190.9C259.7 290.7 227.2 412.7 140 490.1C52.9 567.6 -88.8 600.5 -196.2 554.6C-303.5 508.7 -376.5 384.1 -448.9 259C-521.2 133.9 -593 8.4 -581.3 -110.2C-569.6 -228.8 -474.4 -340.4 -363.6 -390.8C-252.8 -441.3 -126.4 -430.7 0.4 -431.2C127.3 -431.7 254.5 -443.4 315.1 -384" fill="#75b2dd"></path></g></svg>