<svg id="visual" viewBox="0 0 2000 900" width="2000" height="900" xmlns="http://www.w3.org/2000/svg" xmlns:xlink="http://www.w3.org/1999/xlink" version="1.1"><g transform="translate(2019.675145151933 -15.054475044180236)"><path d="M373.6 -402.4C471.3 -363.3 528.6 -233.3 530.4 -110.3C532.1 12.8 478.2 128.9 413.3 236C348.3 343.1 272.3 441.3 181.2 456.5C90.1 471.7 -16.2 404.1 -101.2 344.3C-186.1 284.6 -249.8 232.8 -340.2 157.2C-430.6 81.6 -547.7 -17.8 -566.9 -133.1C-586.1 -248.5 -507.4 -379.7 -396.6 -416.4C-285.8 -453.1 -142.9 -395.3 -2.5 -392.4C138 -389.5 276 -441.4 373.6 -402.4" fill="#91c1e4"></path></g></svg>