<svg id="visual" viewBox="0 0 2000 900" width="2000" height="900" xmlns="http://www.w3.org/2000/svg" xmlns:xlink="http://www.w3.org/1999/xlink" version="1.1"><g transform="translate(2046.0897540205744 -127.6654135316771)"><path d="M343.3 -374.6C442 -326.4 516.9 -215.4 520 -105.4C523 4.6 454.2 113.5 400.3 253.9C346.4 394.2 307.5 565.9 206.2 630.7C104.9 695.4 -58.7 653.1 -217.1 595.8C-375.5 538.5 -528.8 466.1 -585.3 347.8C-641.8 229.5 -601.6 65.3 -537.8 -59.9C-474.1 -185 -386.8 -271 -293.2 -320.1C-199.7 -369.2 -99.8 -381.5 11.2 -394.9C122.3 -408.3 244.7 -422.9 343.3 -374.6" fill="#91c1e4"></path></g></svg>