<svg id="visual" viewBox="0 0 9999 600" width="9999" height="600" xmlns="http://www.w3.org/2000/svg" xmlns:xlink="http://www.w3.org/1999/xlink" version="1.1"><path d="M0 270L185.2 267.2C370.3 264.3 740.7 258.7 1111 254.7C1481.3 250.7 1851.7 248.3 2222 245.3C2592.3 242.3 2962.7 238.7 3333 251.7C3703.3 264.7 4073.7 294.3 4444 294C4814.3 293.7 5184.7 263.3 5555 258.3C5925.3 253.3 6295.7 273.7 6666 287.5C7036.3 301.3 7406.7 308.7 7777 302.7C8147.3 296.7 8517.7 277.3 8888 281.2C9258.3 285 9628.7 312 9813.8 325.5L9999 339L9999 601L9813.8 601C9628.7 601 9258.3 601 8888 601C8517.7 601 8147.3 601 7777 601C7406.7 601 7036.3 601 6666 601C6295.7 601 5925.3 601 5555 601C5184.7 601 4814.3 601 4444 601C4073.7 601 3703.3 601 3333 601C2962.7 601 2592.3 601 2222 601C1851.7 601 1481.3 601 1111 601C740.7 601 370.3 601 185.2 601L0 601Z" fill="#667a91"></path><path d="M0 263L185.2 280C370.3 297 740.7 331 1111 348.8C1481.3 366.7 1851.7 368.3 2222 351.3C2592.3 334.3 2962.7 298.7 3333 299.7C3703.3 300.7 4073.7 338.3 4444 338C4814.3 337.7 5184.7 299.3 5555 291.2C5925.3 283 6295.7 305 6666 310.7C7036.3 316.3 7406.7 305.7 7777 300.5C8147.3 295.3 8517.7 295.7 8888 298.2C9258.3 300.7 9628.7 305.3 9813.8 307.7L9999 310L9999 601L9813.8 601C9628.7 601 9258.3 601 8888 601C8517.7 601 8147.3 601 7777 601C7406.7 601 7036.3 601 6666 601C6295.7 601 5925.3 601 5555 601C5184.7 601 4814.3 601 4444 601C4073.7 601 3703.3 601 3333 601C2962.7 601 2592.3 601 2222 601C1851.7 601 1481.3 601 1111 601C740.7 601 370.3 601 185.2 601L0 601Z" fill="#5c7189"></path><path d="M0 432L185.2 422.3C370.3 412.7 740.7 393.3 1111 374.5C1481.3 355.7 1851.7 337.3 2222 341C2592.3 344.7 2962.7 370.3 3333 384C3703.3 397.7 4073.7 399.3 4444 400.3C4814.3 401.3 5184.7 401.7 5555 387.8C5925.3 374 6295.7 346 6666 337.5C7036.3 329 7406.7 340 7777 359C8147.3 378 8517.7 405 8888 411.2C9258.3 417.3 9628.7 402.7 9813.8 395.3L9999 388L9999 601L9813.8 601C9628.7 601 9258.3 601 8888 601C8517.7 601 8147.3 601 7777 601C7406.7 601 7036.3 601 6666 601C6295.7 601 5925.3 601 5555 601C5184.7 601 4814.3 601 4444 601C4073.7 601 3703.3 601 3333 601C2962.7 601 2592.3 601 2222 601C1851.7 601 1481.3 601 1111 601C740.7 601 370.3 601 185.2 601L0 601Z" fill="#516882"></path><path d="M0 391L185.2 395.3C370.3 399.7 740.7 408.3 1111 412.5C1481.3 416.7 1851.7 416.3 2222 418.8C2592.3 421.3 2962.7 426.7 3333 429.3C3703.3 432 4073.7 432 4444 429C4814.3 426 5184.7 420 5555 427.2C5925.3 434.3 6295.7 454.7 6666 449.8C7036.3 445 7406.7 415 7777 399.7C8147.3 384.3 8517.7 383.7 8888 398.5C9258.3 413.3 9628.7 443.7 9813.8 458.8L9999 474L9999 601L9813.8 601C9628.7 601 9258.3 601 8888 601C8517.7 601 8147.3 601 7777 601C7406.7 601 7036.3 601 6666 601C6295.7 601 5925.3 601 5555 601C5184.7 601 4814.3 601 4444 601C4073.7 601 3703.3 601 3333 601C2962.7 601 2592.3 601 2222 601C1851.7 601 1481.3 601 1111 601C740.7 601 370.3 601 185.2 601L0 601Z" fill="#475f7a"></path><path d="M0 479L185.2 473.3C370.3 467.7 740.7 456.3 1111 458.3C1481.3 460.3 1851.7 475.7 2222 474.8C2592.3 474 2962.7 457 3333 450.8C3703.3 444.7 4073.7 449.3 4444 456.2C4814.3 463 5184.7 472 5555 472.7C5925.3 473.3 6295.7 465.7 6666 465C7036.3 464.3 7406.7 470.7 7777 480.2C8147.3 489.7 8517.7 502.3 8888 508.3C9258.3 514.3 9628.7 513.7 9813.8 513.3L9999 513L9999 601L9813.8 601C9628.7 601 9258.3 601 8888 601C8517.7 601 8147.3 601 7777 601C7406.7 601 7036.3 601 6666 601C6295.7 601 5925.3 601 5555 601C5184.7 601 4814.3 601 4444 601C4073.7 601 3703.3 601 3333 601C2962.7 601 2592.3 601 2222 601C1851.7 601 1481.3 601 1111 601C740.7 601 370.3 601 185.2 601L0 601Z" fill="#3d5673"></path><path d="M0 502L185.2 512.5C370.3 523 740.7 544 1111 547C1481.3 550 1851.7 535 2222 527.3C2592.3 519.7 2962.7 519.3 3333 523.3C3703.3 527.3 4073.7 535.7 4444 539C4814.3 542.3 5184.7 540.7 5555 538.2C5925.3 535.7 6295.7 532.3 6666 528.8C7036.3 525.3 7406.7 521.7 7777 521C8147.3 520.3 8517.7 522.7 8888 523.5C9258.3 524.3 9628.7 523.7 9813.8 523.3L9999 523L9999 601L9813.8 601C9628.7 601 9258.3 601 8888 601C8517.7 601 8147.3 601 7777 601C7406.7 601 7036.3 601 6666 601C6295.7 601 5925.3 601 5555 601C5184.7 601 4814.3 601 4444 601C4073.7 601 3703.3 601 3333 601C2962.7 601 2592.3 601 2222 601C1851.7 601 1481.3 601 1111 601C740.7 601 370.3 601 185.2 601L0 601Z" fill="#334d6c"></path></svg>